<?xml version="1.0" encoding="UTF-8"?>
<svg width="37px" height="35px" viewBox="0 0 37 35" version="1.1" xmlns="http://www.w3.org/2000/svg" xmlns:xlink="http://www.w3.org/1999/xlink">
    <!-- Generator: sketchtool 60 (101010) - https://sketch.com -->
    <title>35B34F31-16FF-4AAA-9470-71905D460AFA@3.00x</title>
    <desc>Created with sketchtool.</desc>
    <defs>
        <radialGradient cx="14.4825688%" cy="13.9480094%" fx="14.4825688%" fy="13.9480094%" r="126.438631%" gradientTransform="translate(0.144826,0.139480),scale(0.950100,1.000000),translate(-0.144826,-0.139480)" id="radialGradient-1">
            <stop stop-color="#00B8E9" offset="0%"></stop>
            <stop stop-color="#009ACA" offset="42.7%"></stop>
            <stop stop-color="#0090BD" offset="50.77%"></stop>
            <stop stop-color="#006D8E" offset="83.47%"></stop>
            <stop stop-color="#00607E" offset="100%"></stop>
        </radialGradient>
        <radialGradient cx="56.64628%" cy="80.35156%" fx="56.64628%" fy="80.35156%" r="10.7865183%" gradientTransform="translate(0.566463,0.803516),scale(0.971147,1.000000),translate(-0.566463,-0.803516)" id="radialGradient-2">
            <stop stop-color="#00B8E9" offset="0%"></stop>
            <stop stop-color="#009ACA" offset="42.7%"></stop>
            <stop stop-color="#0090BD" offset="50.77%"></stop>
            <stop stop-color="#006D8E" offset="83.47%"></stop>
            <stop stop-color="#00607E" offset="100%"></stop>
        </radialGradient>
        <radialGradient cx="-261.372%" cy="-190.999252%" fx="-261.372%" fy="-190.999252%" r="1047.53%" gradientTransform="translate(-2.613720,-1.909993),scale(1.000000,0.971236),translate(2.613720,1.909993)" id="radialGradient-3">
            <stop stop-color="#00B8E9" offset="0%"></stop>
            <stop stop-color="#009ACA" offset="42.7%"></stop>
            <stop stop-color="#0090BD" offset="50.77%"></stop>
            <stop stop-color="#006D8E" offset="83.47%"></stop>
            <stop stop-color="#00607E" offset="100%"></stop>
        </radialGradient>
        <radialGradient cx="56.64638%" cy="80.35136%" fx="56.64638%" fy="80.35136%" r="25.4252675%" gradientTransform="translate(0.566464,0.803514),scale(0.412002,1.000000),translate(-0.566464,-0.803514)" id="radialGradient-4">
            <stop stop-color="#00B8E9" offset="0%"></stop>
            <stop stop-color="#009ACA" offset="42.7%"></stop>
            <stop stop-color="#0090BD" offset="50.77%"></stop>
            <stop stop-color="#006D8E" offset="83.47%"></stop>
            <stop stop-color="#00607E" offset="100%"></stop>
        </radialGradient>
        <radialGradient cx="-146.200714%" cy="-185.985185%" fx="-146.200714%" fy="-185.985185%" r="999.79986%" gradientTransform="translate(-1.462007,-1.859852),scale(0.374191,1.000000),translate(1.462007,1.859852)" id="radialGradient-5">
            <stop stop-color="#00B8E9" offset="0%"></stop>
            <stop stop-color="#009ACA" offset="42.7%"></stop>
            <stop stop-color="#0090BD" offset="50.77%"></stop>
            <stop stop-color="#006D8E" offset="83.47%"></stop>
            <stop stop-color="#00607E" offset="100%"></stop>
        </radialGradient>
        <radialGradient cx="56.64638%" cy="80.35156%" fx="56.64638%" fy="80.35156%" r="25.7215993%" gradientTransform="translate(0.566464,0.803516),scale(0.407255,1.000000),translate(-0.566464,-0.803516)" id="radialGradient-6">
            <stop stop-color="#00B8E9" offset="0%"></stop>
            <stop stop-color="#009ACA" offset="42.7%"></stop>
            <stop stop-color="#0090BD" offset="50.77%"></stop>
            <stop stop-color="#006D8E" offset="83.47%"></stop>
            <stop stop-color="#00607E" offset="100%"></stop>
        </radialGradient>
        <radialGradient cx="46.5067164%" cy="-191.362264%" fx="46.5067164%" fy="-191.362264%" r="1018.66401%" gradientTransform="translate(0.465067,-1.913623),scale(0.383706,1.000000),translate(-0.465067,1.913623)" id="radialGradient-7">
            <stop stop-color="#00B8E9" offset="0%"></stop>
            <stop stop-color="#009ACA" offset="42.7%"></stop>
            <stop stop-color="#0090BD" offset="50.77%"></stop>
            <stop stop-color="#006D8E" offset="83.47%"></stop>
            <stop stop-color="#00607E" offset="100%"></stop>
        </radialGradient>
        <radialGradient cx="56.64628%" cy="80.35156%" fx="56.64628%" fy="80.35156%" r="10.47522%" gradientTransform="translate(0.566463,0.803516),scale(1.000000,0.871293),translate(-0.566463,-0.803516)" id="radialGradient-8">
            <stop stop-color="#00B8E9" offset="0%"></stop>
            <stop stop-color="#009ACA" offset="42.7%"></stop>
            <stop stop-color="#0090BD" offset="50.77%"></stop>
            <stop stop-color="#006D8E" offset="83.47%"></stop>
            <stop stop-color="#00607E" offset="100%"></stop>
        </radialGradient>
        <radialGradient cx="-194.490476%" cy="-191.362264%" fx="-194.490476%" fy="-191.362264%" r="1247.05%" gradientTransform="translate(-1.944905,-1.913623),scale(1.000000,0.816856),translate(1.944905,1.913623)" id="radialGradient-9">
            <stop stop-color="#00B8E9" offset="0%"></stop>
            <stop stop-color="#009ACA" offset="42.7%"></stop>
            <stop stop-color="#0090BD" offset="50.77%"></stop>
            <stop stop-color="#006D8E" offset="83.47%"></stop>
            <stop stop-color="#00607E" offset="100%"></stop>
        </radialGradient>
        <radialGradient cx="56.64628%" cy="80.35166%" fx="56.64628%" fy="80.35166%" r="10.47538%" gradientTransform="translate(0.566463,0.803517),scale(1.000000,0.396042),translate(-0.566463,-0.803517)" id="radialGradient-10">
            <stop stop-color="#00B8E9" offset="0%"></stop>
            <stop stop-color="#009ACA" offset="42.7%"></stop>
            <stop stop-color="#0090BD" offset="50.77%"></stop>
            <stop stop-color="#006D8E" offset="83.47%"></stop>
            <stop stop-color="#00607E" offset="100%"></stop>
        </radialGradient>
        <radialGradient cx="-1326.32857%" cy="-191.35283%" fx="-1326.32857%" fy="-191.35283%" r="3741.20714%" gradientTransform="translate(-13.263286,-1.913528),scale(1.000000,0.272285),translate(13.263286,1.913528)" id="radialGradient-11">
            <stop stop-color="#00B8E9" offset="0%"></stop>
            <stop stop-color="#009ACA" offset="42.7%"></stop>
            <stop stop-color="#0090BD" offset="50.77%"></stop>
            <stop stop-color="#006D8E" offset="83.47%"></stop>
            <stop stop-color="#00607E" offset="100%"></stop>
        </radialGradient>
        <radialGradient cx="56.64628%" cy="80.35166%" fx="56.64628%" fy="80.35166%" r="10.7862918%" gradientTransform="translate(0.566463,0.803517),scale(0.971147,1.000000),translate(-0.566463,-0.803517)" id="radialGradient-12">
            <stop stop-color="#00B8E9" offset="0%"></stop>
            <stop stop-color="#009ACA" offset="42.7%"></stop>
            <stop stop-color="#0090BD" offset="50.77%"></stop>
            <stop stop-color="#006D8E" offset="83.47%"></stop>
            <stop stop-color="#00607E" offset="100%"></stop>
        </radialGradient>
        <radialGradient cx="-363.372%" cy="-360.589581%" fx="-363.372%" fy="-360.589581%" r="1047.508%" gradientTransform="translate(-3.633720,-3.605896),scale(1.000000,0.971236),translate(3.633720,3.605896)" id="radialGradient-13">
            <stop stop-color="#00B8E9" offset="0%"></stop>
            <stop stop-color="#009ACA" offset="42.7%"></stop>
            <stop stop-color="#0090BD" offset="50.77%"></stop>
            <stop stop-color="#006D8E" offset="83.47%"></stop>
            <stop stop-color="#00607E" offset="100%"></stop>
        </radialGradient>
        <radialGradient cx="56.64638%" cy="80.35146%" fx="56.64638%" fy="80.35146%" r="27.3816847%" gradientTransform="translate(0.566464,0.803515),scale(0.382573,1.000000),translate(-0.566464,-0.803515)" id="radialGradient-14">
            <stop stop-color="#00B8E9" offset="0%"></stop>
            <stop stop-color="#009ACA" offset="42.7%"></stop>
            <stop stop-color="#0090BD" offset="50.77%"></stop>
            <stop stop-color="#006D8E" offset="83.47%"></stop>
            <stop stop-color="#00607E" offset="100%"></stop>
        </radialGradient>
        <radialGradient cx="-26.915%" cy="-353.938658%" fx="-26.915%" fy="-353.938658%" r="998.600116%" gradientTransform="translate(-0.269150,-3.539387),scale(0.374649,1.000000),translate(0.269150,3.539387)" id="radialGradient-15">
            <stop stop-color="#00B8E9" offset="0%"></stop>
            <stop stop-color="#009ACA" offset="42.7%"></stop>
            <stop stop-color="#0090BD" offset="50.77%"></stop>
            <stop stop-color="#006D8E" offset="83.47%"></stop>
            <stop stop-color="#00607E" offset="100%"></stop>
        </radialGradient>
        <radialGradient cx="56.64628%" cy="80.35166%" fx="56.64628%" fy="80.35166%" r="10.47534%" gradientTransform="translate(0.566463,0.803517),scale(1.000000,0.950501),translate(-0.566463,-0.803517)" id="radialGradient-16">
            <stop stop-color="#00B8E9" offset="0%"></stop>
            <stop stop-color="#009ACA" offset="42.7%"></stop>
            <stop stop-color="#0090BD" offset="50.77%"></stop>
            <stop stop-color="#006D8E" offset="83.47%"></stop>
            <stop stop-color="#00607E" offset="100%"></stop>
        </radialGradient>
        <radialGradient cx="-618.882609%" cy="-362.954157%" fx="-618.882609%" fy="-362.954157%" r="1138.62391%" gradientTransform="translate(-6.188826,-3.629542),scale(1.000000,0.894465),translate(6.188826,3.629542)" id="radialGradient-17">
            <stop stop-color="#00B8E9" offset="0%"></stop>
            <stop stop-color="#009ACA" offset="42.7%"></stop>
            <stop stop-color="#0090BD" offset="50.77%"></stop>
            <stop stop-color="#006D8E" offset="83.47%"></stop>
            <stop stop-color="#00607E" offset="100%"></stop>
        </radialGradient>
        <radialGradient cx="56.64628%" cy="80.35146%" fx="56.64628%" fy="80.35146%" r="10.4756%" gradientTransform="translate(0.566463,0.803515),scale(1.000000,0.792084),translate(-0.566463,-0.803515)" id="radialGradient-18">
            <stop stop-color="#00B8E9" offset="0%"></stop>
            <stop stop-color="#009ACA" offset="42.7%"></stop>
            <stop stop-color="#0090BD" offset="50.77%"></stop>
            <stop stop-color="#006D8E" offset="83.47%"></stop>
            <stop stop-color="#00607E" offset="100%"></stop>
        </radialGradient>
        <radialGradient cx="-565.919048%" cy="-361.183019%" fx="-565.919048%" fy="-361.183019%" r="1247.09524%" gradientTransform="translate(-5.659190,-3.611830),scale(1.000000,0.816856),translate(5.659190,3.611830)" id="radialGradient-19">
            <stop stop-color="#00B8E9" offset="0%"></stop>
            <stop stop-color="#009ACA" offset="42.7%"></stop>
            <stop stop-color="#0090BD" offset="50.77%"></stop>
            <stop stop-color="#006D8E" offset="83.47%"></stop>
            <stop stop-color="#00607E" offset="100%"></stop>
        </radialGradient>
        <radialGradient cx="56.64628%" cy="80.35166%" fx="56.64628%" fy="80.35166%" r="10.47508%" gradientTransform="translate(0.566463,0.803517),scale(1.000000,0.871293),translate(-0.566463,-0.803517)" id="radialGradient-20">
            <stop stop-color="#00B8E9" offset="0%"></stop>
            <stop stop-color="#009ACA" offset="42.7%"></stop>
            <stop stop-color="#0090BD" offset="50.77%"></stop>
            <stop stop-color="#006D8E" offset="83.47%"></stop>
            <stop stop-color="#00607E" offset="100%"></stop>
        </radialGradient>
        <radialGradient cx="-723.230435%" cy="-362.954157%" fx="-723.230435%" fy="-362.954157%" r="1138.59565%" gradientTransform="translate(-7.232304,-3.629542),scale(1.000000,0.894465),translate(7.232304,3.629542)" id="radialGradient-21">
            <stop stop-color="#00B8E9" offset="0%"></stop>
            <stop stop-color="#009ACA" offset="42.7%"></stop>
            <stop stop-color="#0090BD" offset="50.77%"></stop>
            <stop stop-color="#006D8E" offset="83.47%"></stop>
            <stop stop-color="#00607E" offset="100%"></stop>
        </radialGradient>
    </defs>
    <g id="Desktop-View" stroke="none" stroke-width="1" fill="none" fill-rule="evenodd">
        <g id="ðŸMerchant-Checkout" transform="translate(-1142.000000, -304.000000)">
            <g id="Shopping-Cart" transform="translate(150.000000, 64.000000)">
                <g id="Payment" transform="translate(790.000000, 0.000000)">
                    <g id="Content" transform="translate(24.000000, 144.000000)">
                        <g id="Payment-CreditCard" transform="translate(15.160000, 96.000000)">
                            <g id="American-Express" transform="translate(162.717333, 0.000000)">
                                <g transform="translate(0.068653, 0.077918)">
                                    <polygon id="Rectangle-path" fill="#FFFFFF" fill-rule="nonzero" points="0.358139861 0.118502295 36.6198008 0.118502295 36.6198008 34.4881713 0.358139861 34.4881713"></polygon>
                                    <path d="M35.2860386,25.5116225 C35.2860386,25.5116225 35.2026784,25.5116225 35.1193183,25.5116225 L32.2850735,25.5116225 L32.2850735,25.3498828 C31.951633,25.5116225 31.6181924,25.5116225 31.2847518,25.5116225 C31.2847518,25.5116225 31.2013917,25.5116225 31.1180316,25.5116225 L29.4508288,25.5116225 L25.3661819,25.5116225 L22.6152973,25.5116225 L22.6152973,24.7029244 C22.6152973,24.7029244 22.6152973,24.1368357 22.6152973,24.0559659 C22.6152973,24.0559659 22.5319371,24.0559659 22.448577,24.0559659 C22.448577,24.3794451 22.448577,25.5116225 22.448577,25.5116225 L19.6143322,25.5116225 L19.6143322,23.8942263 C19.1141714,24.0559659 18.6140105,24.1368357 18.1138497,24.1368357 C18.1138497,24.1368357 17.9471294,24.1368357 17.8637693,24.1368357 C17.8637693,24.3794451 17.8637693,25.5116225 17.8637693,25.5116225 L14.5293637,25.5116225 C14.5293637,25.5116225 14.0292028,24.9455338 13.6957623,24.6220546 C13.4456819,24.9455338 12.8621609,25.5116225 12.8621609,25.5116225 L7.61047205,25.5116225 L7.61047205,19.6081264 L12.945521,19.6081264 C12.945521,19.6081264 13.529042,20.2550848 13.8624826,20.5785641 C14.1959231,20.2550848 14.7794441,19.6081264 14.7794441,19.6081264 L15.1128847,19.6081264 L15.9464861,19.6081264 L18.6140105,19.6081264 C18.7807308,19.6081264 19.1975315,19.6081264 19.6143322,19.769866 L19.6143322,19.6081264 L23.1154581,19.6081264 C23.2821784,19.6081264 23.6989791,19.6081264 24.1991399,19.769866 L24.1991399,19.6081264 L28.5338672,19.6081264 L29.3674686,19.6081264 L29.3674686,19.769866 C29.8676295,19.6081264 30.2844302,19.6081264 30.3677903,19.6081264 L33.2853952,19.6081264 L33.2853952,19.769866 C33.785556,19.6081264 34.2023567,19.6081264 34.2857169,19.6081264 L36.3697204,19.6081264 L36.3697204,0.118502295 L0.108059441,0.118502295 L0.108059441,15.2411567 L1.35846154,12.4107133 L4.02598603,12.4107133 C4.02598603,12.4107133 4.35942659,13.1385416 4.35942659,13.1385416 C4.35942659,13.0576718 4.35942659,12.4107133 4.35942659,12.4107133 L7.52711191,12.4107133 C7.52711191,12.4107133 8.02727275,13.4620209 8.19399303,13.9472397 C8.44407345,13.4620209 8.86087415,12.4107133 8.86087415,12.4107133 L10.9448777,12.4107133 L11.1949581,12.4107133 L12.0285595,12.4107133 L15.1128847,12.4107133 L15.3629651,12.4107133 L16.1965665,12.4107133 L18.6140105,12.4107133 C18.7807308,12.4107133 19.1975315,12.4107133 19.6976924,12.572453 L19.6976924,12.4107133 L21.6983357,12.4107133 L22.5319371,12.4107133 L22.5319371,12.7341926 C22.9487378,12.4915831 23.4488987,12.3298435 23.8656994,12.3298435 C23.8656994,12.3298435 25.3661819,12.3298435 25.449542,12.4107133 L28.1170665,12.4107133 C28.1170665,12.4107133 28.3671469,13.0576718 28.4505071,13.1385416 C28.4505071,12.976802 28.4505071,12.4107133 28.4505071,12.4107133 L31.368112,12.4107133 C31.368112,12.4107133 31.7849127,13.0576718 31.8682728,13.1385416 C31.8682728,13.0576718 31.8682728,12.4107133 31.8682728,12.4107133 L34.7025176,12.4107133 L34.7025176,18.3142094 L31.8682728,18.3142094 C31.8682728,18.3142094 31.4514721,17.6672509 31.368112,17.5055113 C31.368112,17.5863811 31.368112,18.3142094 31.368112,18.3142094 L27.783626,18.3142094 C27.783626,18.3142094 27.4501854,17.5863811 27.3668253,17.4246415 C27.0333847,17.4246415 26.7833043,17.4246415 26.4498637,17.4246415 C26.3665036,17.5863811 26.033063,18.3142094 26.033063,18.3142094 L23.6156189,18.3142094 C23.2821784,18.3142094 22.9487378,18.1524698 22.6152973,17.9907302 L22.6152973,18.3950792 L20.6146539,18.3950792 C20.6146539,18.3950792 19.7810525,18.3950792 18.1138497,18.3950792 L18.1138497,17.5863811 C18.1138497,17.5863811 18.1138497,17.0202925 18.1138497,16.9394227 C18.1138497,16.9394227 18.0304896,16.9394227 17.9471294,16.9394227 C17.9471294,17.2629019 17.9471294,18.3950792 17.9471294,18.3950792 L16.1965665,18.3950792 L15.1128847,18.3950792 L12.0285595,18.3950792 L11.7784791,18.3950792 L9.19431471,18.3950792 C9.19431471,18.341166 8.49964688,18.341166 7.11031121,18.3950792 C7.11031121,18.3950792 7.11031121,18.3142094 7.02695107,18.3142094 C7.02695107,18.3142094 5.83212239,18.341166 3.44246504,18.3950792 C3.44246504,18.3950792 3.10902448,17.6672509 3.02566434,17.5055113 C2.69222378,17.5055113 2.44214336,17.5055113 2.1087028,17.5055113 C2.02534266,17.7481208 1.6919021,18.3950792 1.6919021,18.3950792 L0.0246993008,18.3950792 L0.0246993008,34.6499109 L36.2863602,34.6499109 L36.2863602,25.3498828 C36.11964,25.4307527 35.7028393,25.5116225 35.2860386,25.5116225 Z" id="Shape" fill="url(#radialGradient-1)" fill-rule="nonzero"></path>
                                    <g id="Group" transform="translate(0.108059, 12.763017)" fill-rule="nonzero">
                                        <g id="SVGID_2_-link" transform="translate(15.838427, 0.352304)" fill="url(#radialGradient-3)">
                                            <path d="M3.16768532,4.30931995 L3.16768532,3.50062185 C3.16768532,3.50062185 3.08432518,2.85366338 2.41744406,2.85366338 L1.33376224,2.85366338 L1.33376224,4.30931995 L0.25008042,4.30931995 L0.25008042,0.0232200443 L3.00096504,0.0232200443 C3.00096504,0.0232200443 4.41808742,-0.138519575 4.41808742,1.317137 C4.41808742,2.04496528 3.7512063,2.28757471 3.7512063,2.28757471 C3.7512063,2.28757471 4.33472728,2.53018414 4.33472728,3.25801242 L4.33472728,4.30931995 L3.16768532,4.30931995 M1.33376224,1.80235585 L2.5008042,1.80235585 C2.83424476,1.80235585 3.08432518,1.64061623 3.08432518,1.3980068 C3.08432518,1.15539738 2.83424476,0.993657758 2.5008042,0.993657758 L1.33376224,0.993657758 L1.33376224,1.80235585 L1.33376224,1.80235585" id="SVGID_2_"></path>
                                        </g>
                                        <g id="SVGID_5_-link" transform="translate(22.036407, 0.000000)" fill="url(#radialGradient-5)">
                                            <path d="M10.307327,4.66162407 L8.55676401,1.75031093 L8.55676401,4.66162407 L7.55644233,4.66162407 L7.38972205,4.66162407 L6.30604023,4.66162407 L5.88923953,3.77205616 L3.80523602,3.77205616 L3.38843532,4.66162407 L2.38811364,4.66162407 L2.22139336,4.66162407 L1.72123252,4.66162407 C1.72123252,4.66162407 0.220750001,4.41901464 0.220750001,2.63987883 C0.220750001,0.213784546 1.97131294,0.375524165 1.97131294,0.294654355 L3.38843532,0.294654355 L3.38843532,1.26509207 L2.22139336,1.26509207 C2.22139336,1.26509207 1.4711521,1.26509207 1.38779196,2.23552978 C1.38779196,2.31639959 1.38779196,2.47813921 1.38779196,2.55900902 C1.38779196,4.01466559 2.7215542,3.52944673 2.7215542,3.52944673 L4.13867658,0.294654355 L5.72251925,0.294654355 L7.38972205,4.17640521 L7.38972205,0.294654355 L8.97356471,0.294654355 L10.7241277,3.12509769 L10.7241277,0.294654355 L11.8911696,0.294654355 L11.8911696,4.58075426 L10.307327,4.58075426 M4.30539687,2.72074864 L5.38907869,2.72074864 L4.88891785,1.42683169 L4.30539687,2.72074864 L4.30539687,2.72074864" id="SVGID_5_"></path>
                                        </g>
                                        <g id="SVGID_8_-link" transform="translate(0.000000, 0.352304)" fill="url(#radialGradient-7)">
                                            <path d="M10.1699371,4.30931995 L10.1699371,1.317137 L8.75281471,4.30931995 L7.83585317,4.30931995 L6.41873079,1.317137 L6.41873079,4.30931995 L5.41840911,4.30931995 L5.25168883,4.30931995 L4.168007,4.30931995 L3.7512063,3.41975204 L1.6672028,3.41975204 L1.2504021,4.30931995 L0,4.30931995 L1.83392308,0.0232200443 L3.41776574,0.0232200443 L5.16832869,3.98584071 L5.16832869,0.0232200443 L6.91889163,0.0232200443 L8.16929373,2.69192376 L9.41969583,0.0232200443 L11.1702588,0.0232200443 L11.1702588,4.30931995 L10.1699371,4.30931995 M2.25072378,2.36844452 L3.3344056,2.36844452 L2.75088462,1.07452757 L2.25072378,2.36844452 L2.25072378,2.36844452" id="SVGID_8_"></path>
                                        </g>
                                        <g id="SVGID_11_-link" transform="translate(11.670420, 0.352304)" fill="url(#radialGradient-9)">
                                            <polyline id="SVGID_11_" points="0.33344056 4.30931995 0.33344056 0.0232200443 3.83456644 0.0232200443 3.83456644 1.07452757 1.41712238 1.07452757 1.41712238 1.72148604 3.7512063 1.72148604 3.7512063 2.69192376 1.41712238 2.69192376 1.41712238 3.41975204 3.83456644 3.41975204 3.83456644 4.30931995 0.33344056 4.30931995"></polyline>
                                        </g>
                                        <g id="SVGID_14_-link" transform="translate(20.369205, 0.352304)" fill="url(#radialGradient-11)">
                                            <polyline id="SVGID_14_" points="0.304110141 4.30931995 0.304110141 0.0232200443 1.4711521 0.0232200443 1.4711521 4.30931995 0.304110141 4.30931995"></polyline>
                                        </g>
                                    </g>
                                    <g id="Group" transform="translate(8.444073, 20.393604)" fill-rule="nonzero">
                                        <g id="SVGID_17_-link" transform="translate(11.670420, 0.000000)" fill="url(#radialGradient-13)">
                                            <path d="M3.3344056,4.30931995 L3.3344056,3.50062185 C3.3344056,3.50062185 3.25104546,2.85366338 2.58416434,2.85366338 L1.50048252,2.85366338 L1.50048252,4.30931995 L0.33344056,4.30931995 L0.33344056,0.0232200443 L3.08432518,0.0232200443 C3.08432518,0.0232200443 4.50144756,-0.138519575 4.50144756,1.317137 C4.50144756,2.04496528 3.83456644,2.28757471 3.83456644,2.28757471 C3.83456644,2.28757471 4.33472728,2.53018414 4.33472728,3.25801242 L4.33472728,4.30931995 L3.3344056,4.30931995 M1.50048252,1.88322566 L2.66752448,1.88322566 C3.00096504,1.88322566 3.25104546,1.72148604 3.25104546,1.47887661 C3.25104546,1.23626719 3.00096504,1.07452757 2.66752448,1.07452757 L1.50048252,1.07452757 L1.50048252,1.88322566 L1.50048252,1.88322566" id="SVGID_17_"></path>
                                        </g>
                                        <g id="SVGID_20_-link" fill="url(#radialGradient-15)">
                                            <path d="M7.50241261,4.30931995 L6.50209093,4.30931995 L5.33504897,3.01540299 L4.168007,4.30931995 L3.50112588,4.30931995 L0,4.30931995 L0,0.0232200443 L3.50112588,0.0232200443 L4.08464686,0.0232200443 L5.33504897,1.3980068 L6.66881121,0.0232200443 L7.50241261,0.0232200443 L7.50241261,0.0232200443 L10.2532972,0.0232200443 C10.2532972,0.0232200443 11.6704196,-0.138519575 11.6704196,1.317137 C11.6704196,2.61105395 11.1702588,3.01540299 9.75313639,3.01540299 L8.66945457,3.01540299 L8.66945457,4.39018975 L7.50241261,4.39018975 M6.16865037,2.2067049 L7.58577275,3.74323128 L7.58577275,0.751048329 L6.16865037,2.2067049 L6.16865037,2.2067049 M1.08368182,3.41975204 L3.41776574,3.41975204 L4.50144756,2.2067049 L3.41776574,0.993657758 L1.08368182,0.993657758 L1.08368182,1.64061623 L3.41776574,1.64061623 L3.41776574,2.61105395 L1.08368182,2.61105395 L1.08368182,3.41975204 L1.08368182,3.41975204 M8.66945457,1.80235585 L9.83649653,1.80235585 C10.1699371,1.80235585 10.4200175,1.64061623 10.4200175,1.3980068 C10.4200175,1.15539738 10.1699371,0.993657758 9.83649653,0.993657758 L8.66945457,0.993657758 L8.66945457,1.80235585 L8.66945457,1.80235585" id="SVGID_20_"></path>
                                        </g>
                                        <g id="SVGID_23_-link" transform="translate(20.369205, 0.000000)" fill="url(#radialGradient-17)">
                                            <path d="M2.3047535,4.30931995 L0.304110141,4.30931995 L0.304110141,3.33888223 L2.05467308,3.33888223 C2.05467308,3.33888223 2.7215542,3.41975204 2.7215542,3.01540299 C2.7215542,2.61105395 1.80459266,2.69192376 1.80459266,2.69192376 C1.80459266,2.69192376 0.220750001,2.85366338 0.220750001,1.3980068 C0.220750001,0.0232200443 1.63787238,0.104089854 1.63787238,0.104089854 L3.80523602,0.104089854 L3.80523602,1.07452757 L2.05467308,1.07452757 C2.05467308,1.07452757 1.4711521,0.993657758 1.4711521,1.3980068 C1.4711521,1.72148604 2.3047535,1.72148604 2.3047535,1.72148604 C2.3047535,1.72148604 4.05531644,1.55974642 4.05531644,2.85366338 C4.05531644,4.22845014 2.97163462,4.39018975 2.55483392,4.39018975 C2.38811364,4.30931995 2.3047535,4.30931995 2.3047535,4.30931995" id="SVGID_23_"></path>
                                        </g>
                                        <g id="SVGID_26_-link" transform="translate(16.672028, 0.000000)" fill="url(#radialGradient-19)">
                                            <polyline id="SVGID_26_" points="0 4.30931995 0 0.0232200443 3.50112588 0.0232200443 3.50112588 1.07452757 1.16704196 1.07452757 1.16704196 1.72148604 3.50112588 1.72148604 3.50112588 2.69192376 1.16704196 2.69192376 1.16704196 3.41975204 3.50112588 3.41975204 3.50112588 4.30931995 0 4.30931995"></polyline>
                                        </g>
                                        <g id="SVGID_29_-link" transform="translate(24.537212, 0.000000)" fill="url(#radialGradient-21)">
                                            <path d="M2.13803322,4.30931995 L0.137389861,4.30931995 L0.137389861,3.33888223 L1.8879528,3.33888223 C1.8879528,3.33888223 2.55483392,3.41975204 2.55483392,3.01540299 C2.55483392,2.61105395 1.63787238,2.69192376 1.63787238,2.69192376 C1.63787238,2.69192376 0.0540297204,2.85366338 0.0540297204,1.3980068 C0.0540297204,0.0232200443 1.4711521,0.104089854 1.4711521,0.104089854 L3.63851574,0.104089854 L3.63851574,1.07452757 L1.8879528,1.07452757 C1.8879528,1.07452757 1.30443182,0.993657758 1.30443182,1.3980068 C1.30443182,1.72148604 2.13803322,1.72148604 2.13803322,1.72148604 C2.13803322,1.72148604 3.88859616,1.55974642 3.88859616,2.85366338 C3.88859616,4.22845014 2.80491434,4.39018975 2.38811364,4.39018975 C2.22139336,4.30931995 2.13803322,4.30931995 2.13803322,4.30931995" id="SVGID_29_"></path>
                                        </g>
                                    </g>
                                </g>
                            </g>
                        </g>
                    </g>
                </g>
            </g>
        </g>
    </g>
</svg>