<?xml version="1.0" encoding="UTF-8"?>
<svg width="8px" height="13px" viewBox="0 0 8 13" version="1.1" xmlns="http://www.w3.org/2000/svg" xmlns:xlink="http://www.w3.org/1999/xlink">
    <!-- Generator: sketchtool 60 (101010) - https://sketch.com -->
    <title>1A3997A9-86FC-40D6-9905-7EA78C52C07B@3.00x</title>
    <desc>Created with sketchtool.</desc>
    <g id="Desktop-View" stroke="none" stroke-width="1" fill="none" fill-rule="evenodd">
        <g id="ðŸMerchant-Checkout" transform="translate(-206.000000, -719.000000)" fill="#19202C" fill-rule="nonzero">
            <g id="Shopping-Cart" transform="translate(150.000000, 64.000000)">
                <g id="Button---Continue-Shopping" transform="translate(0.000000, 633.000000)">
                    <g id="Text" transform="translate(56.000000, 16.000000)">
                        <path d="M3.99997842,16.5 C3.76699196,16.5 3.53403427,16.4039623 3.35640296,16.2122907 L-2.23331567,10.1777558 C-2.58889478,9.79388447 -2.58889478,9.17150298 -2.23331567,8.78778699 C-1.87788041,8.404071 -1.30148491,8.404071 -0.945877024,8.78778699 L3.99997842,14.1274773 L8.94586264,8.78797335 C9.30144175,8.40425736 9.87777971,8.40425736 10.2331862,8.78797335 C10.5889379,9.17168934 10.5889379,9.79407083 10.2331862,10.1779421 L4.64355389,16.212477 C4.46583626,16.4041797 4.23287857,16.5 3.99997842,16.5 Z" id="Arrow-Down" transform="translate(4.000000, 12.500000) rotate(-270.000000) translate(-4.000000, -12.500000) "></path>
                    </g>
                </g>
            </g>
        </g>
    </g>
</svg>