<?xml version="1.0" encoding="UTF-8"?>
<svg width="321px" height="52px" viewBox="0 0 321 52" version="1.1" xmlns="http://www.w3.org/2000/svg" xmlns:xlink="http://www.w3.org/1999/xlink">
    <!-- Generator: sketchtool 60 (101010) - https://sketch.com -->
    <title>9AED828D-0C47-4702-9CAB-C248E3D89908@3.00x</title>
    <desc>Created with sketchtool.</desc>
    <defs>
        <polygon id="path-1" points="0.324289753 0.492024324 12.903833 0.492024324 12.903833 18.1621622 0.324289753 18.1621622"></polygon>
        <polygon id="path-3" points="0.4160419 0.166297297 4.17178506 0.166297297 4.17178506 11.4352946 0.4160419 11.4352946"></polygon>
    </defs>
    <g id="Desktop-View" stroke="none" stroke-width="1" fill="none" fill-rule="evenodd">
        <g id="ðŸMerchant-Checkout" transform="translate(-978.000000, -515.000000)">
            <g id="Shopping-Cart" transform="translate(150.000000, 64.000000)">
                <g id="Payment" transform="translate(790.000000, 0.000000)">
                    <g id="Content" transform="translate(24.000000, 144.000000)">
                        <g id="CTA" transform="translate(14.085333, 307.000000)">
                            <rect id="Fill-Color" fill="#184E90" x="0" y="0" width="320" height="52" rx="25"></rect>
                            <g id="Group-2" transform="translate(59.000000, 15.000000)">
                                <g id="Group">
                                    <text id="Button-Text" font-family="OpenSans-Bold, Open Sans" font-size="15" font-weight="bold" line-spacing="15" letter-spacing="0.2222222" fill="#FFFFFF">
                                        <tspan x="0" y="19">CHECK OUT WITH </tspan>
                                    </text>
                                    <g id="Logo" transform="translate(149.000000, 0.000000)">
                                        <path d="M0,11.9336189 L3.14570944,11.9336189 C3.17755639,12.5738351 3.40872128,13.0511595 3.84030229,13.3712676 C4.30318116,13.6891054 4.91980391,13.849727 5.69181778,13.849727 C6.24584481,13.849727 6.72574532,13.7379162 7.12602847,13.513727 C7.49611194,13.290673 7.68170275,12.9858892 7.68170275,12.6056189 C7.68170275,12.030673 7.03378215,11.5976189 5.73739186,11.3149703 C5.18226666,11.2173486 4.76660912,11.1237 4.48767381,11.0277811 C2.85249791,10.6128892 1.75762191,10.1174027 1.2030458,9.54415946 C0.58587397,8.96921351 0.277288055,8.20526757 0.277288055,7.24834865 C0.277288055,6.03545676 0.724243455,5.03313243 1.61925242,4.23456486 C2.54555925,3.5007 3.74750688,3.13291622 5.22948799,3.13291622 C6.83281695,3.13291622 8.11328377,3.5007 9.0692412,4.23456486 C9.96425017,5.03313243 10.4425034,6.06780811 10.5050991,7.34256486 L8.51466509,7.34256486 C7.92769295,7.34256486 7.48018846,7.07183514 7.17270072,6.53094324 C7.04915654,6.40210541 6.92616144,6.27667297 6.80316634,6.1484027 C6.43198471,5.86178108 5.92353176,5.71761892 5.2739639,5.71761892 C4.65734116,5.71761892 4.19556045,5.81353784 3.88587637,6.00367297 C3.60968648,6.19551081 3.46966974,6.48213243 3.46966974,6.86410541 C3.46966974,7.1354027 3.75684133,7.38967297 3.95396294,7.51226757 C4.33338085,7.7444027 4.7600201,7.8687 5.18336483,7.98845676 C6.0262107,8.2257 6.89101998,8.36815946 7.72617866,8.63491622 C8.39551359,8.84605135 9.09120461,9.10145676 9.6765295,9.50442973 C10.2799742,9.92159189 10.6994753,10.5663486 10.8466302,11.3013486 C10.8965969,11.5556189 10.9213058,11.8212405 10.9213058,12.0794838 C10.9213058,13.4830784 10.4276781,14.5665649 9.43877558,15.3322135 C8.51466509,16.0314568 7.12602847,16.3844838 5.2739639,16.3844838 C3.51634199,16.3844838 2.20512639,16.0161324 1.3408662,15.2834027 C0.448602655,14.5495378 0,13.4830784 0,12.0794838 L0,11.9336189 Z" id="Fill-1" fill="#FEFEFE"></path>
                                        <path d="M22.258324,8.57032703 C22.2231825,5.54348919 19.8439961,3.10238108 16.9091354,3.10238108 C13.9517622,3.10238108 11.5566523,5.57981351 11.5566523,8.63446216 L11.5577505,8.63446216 C11.5566523,8.66170541 11.5517106,8.68611081 11.5517106,8.71278649 L11.5517106,16.1621108 L14.7841755,16.1621108 L14.7841755,8.50902973 C14.7841755,7.28478649 15.740682,6.29211081 16.9278043,6.29211081 C18.110534,6.29211081 19.0714332,7.28478649 19.0714332,8.50902973 C19.0730804,8.54194865 19.0813167,8.57032703 19.0813167,8.60324595 L19.0813167,14.5388676 C19.0813167,15.0161919 19.2273734,15.4066784 19.5194867,15.7069216 C19.8126983,16.0105703 20.1899198,16.1621108 20.6522496,16.1621108 L22.2693057,16.1621108 L22.2693057,8.71278649 C22.2693057,8.66511081 22.2610694,8.61686757 22.258324,8.57032703" id="Fill-3" fill="#FEFEFE"></path>
                                        <g id="Group-7" transform="translate(34.043286, 2.671597)">
                                            <mask id="mask-2" fill="white">
                                                <use xlink:href="#path-1"></use>
                                            </mask>
                                            <g id="Clip-6"></g>
                                            <path d="M6.71289673,10.2774568 C4.93990043,10.2774568 3.50459157,8.79667297 3.50459157,6.96342973 C3.50459157,5.13415946 4.93990043,3.6494027 6.71289673,3.6494027 C8.48479485,3.6494027 9.91845646,5.13415946 9.91845646,6.96342973 C9.91845646,8.79667297 8.48479485,10.2774568 6.71289673,10.2774568 M12.7769943,5.67221351 C12.1872767,2.71575405 9.6526992,0.492024324 6.61625772,0.492024324 C6.43286324,0.492024324 6.25276328,0.503943243 6.07485966,0.52097027 C5.93758834,0.532321622 5.80525879,0.553321622 5.66963474,0.572618919 C5.59990091,0.582835135 5.52851983,0.591916216 5.45988417,0.606105405 C5.3396345,0.629375676 5.22103208,0.658321622 5.10188058,0.687835135 C5.01951779,0.711672973 4.937155,0.729835135 4.85314496,0.753672973 C4.75540778,0.783754054 4.65767061,0.818943243 4.56158069,0.853564865 C4.460549,0.889889189 4.35951731,0.924510811 4.25903471,0.967645946 C4.18710454,0.997727027 4.11737071,1.02837568 4.04544054,1.06186216 C3.92189636,1.12032162 3.79945035,1.17991622 3.68084793,1.24405135 C3.63582294,1.26959189 3.59409246,1.29342973 3.55126381,1.31783514 C3.40465805,1.4007 3.26024863,1.49207838 3.12133006,1.58629459 C3.10650475,1.59821351 3.09277762,1.60559189 3.07959958,1.61864595 C1.41642033,2.78726757 0.324289753,4.7589973 0.324289753,6.99578108 C0.324289753,7.03551081 0.32923152,7.07637568 0.330878776,7.11724054 C0.333075117,7.14732162 0.33856597,7.17797027 0.340762311,7.20975405 C0.340762311,7.22053784 0.33856597,7.23245676 0.337467799,7.24607838 C0.333075117,7.2597 0.331976947,7.27218649 0.331976947,7.28637568 L0.331976947,18.162673 L1.90510621,18.162673 C2.33723631,18.162673 2.7062216,17.9997811 3.01590569,17.6813757 C3.32229526,17.3635378 3.47823547,16.9798622 3.47823547,16.5337541 L3.47823547,12.6283216 L3.47823547,12.5795108 C4.40509139,13.1323216 5.46317868,13.4734297 6.61021778,13.4734297 C10.0870256,13.4734297 12.903833,10.5618081 12.903833,6.96683514 C12.903833,6.5229973 12.8610044,6.09334865 12.7769943,5.67221351" id="Fill-5" fill="#FEFEFE" mask="url(#mask-2)"></path>
                                        </g>
                                        <path d="M27.5260832,13.8840649 C26.9819397,13.8840649 26.5657331,13.7711189 26.2763652,13.5395514 C25.6937857,13.0752811 25.7294763,12.1541189 26.1533701,11.6228757 C26.6568813,10.9894703 27.7610917,10.9537135 28.5347529,10.7874162 C29.3369664,10.6148757 29.9618254,10.4275784 30.409879,10.2283622 L30.409879,11.3044703 C30.409879,12.1081459 30.1529071,12.7381459 29.6400615,13.1939027 C29.128314,13.6547676 28.4227395,13.8840649 27.5260832,13.8840649 L27.5260832,13.8840649 Z M33.4188662,6.72022703 C33.4188662,5.57317297 32.9691654,4.68095676 32.0763528,4.04357838 C31.2126417,3.43911892 29.9146041,3.1332 28.187731,3.1332 C26.6464487,3.1332 25.4582282,3.50041622 24.626364,4.23428108 C23.8840007,4.87109189 23.4518706,5.68441622 23.3288755,6.67368649 L26.42956,6.67368649 C26.584402,6.32292973 26.8298431,6.08511892 27.1713742,5.95628108 C28.0191618,5.63901081 30.3637558,5.49257838 30.3637558,6.9149027 C30.3637558,8.0052 28.6116248,8.11757838 27.8923231,8.23052432 C26.584402,8.43598378 25.2314559,8.66528108 24.1398745,9.49733514 C23.3837841,10.0700108 23.0049152,11.0280649 23.0049152,12.3658216 C23.0049152,13.8000649 23.4216709,14.8279297 24.2546333,15.4499838 C25.0886938,16.0726054 26.0600256,16.3842 27.1713742,16.3842 C27.7264994,16.3842 28.3661837,16.3444703 29.0904271,16.2650108 C29.6444542,16.2037135 30.1759687,16.0618216 30.6838726,15.842173 C30.7025414,15.8609027 30.7140722,15.8824703 30.7310939,15.9023351 C31.0402289,16.2190378 31.4103123,16.3796595 31.8407952,16.3796595 L33.4150226,16.3796595 L33.4150226,11.1200108 C33.4150226,11.1046865 33.4188662,11.0910649 33.4188662,11.0757405 L33.4188662,6.72022703 Z" id="Fill-8" fill="#FEFEFE"></path>
                                        <g id="Group-12" transform="translate(47.770417, 0.401327)">
                                            <mask id="mask-4" fill="white">
                                                <use xlink:href="#path-3"></use>
                                            </mask>
                                            <g id="Clip-11"></g>
                                            <path d="M3.64356504,11.4352946 L4.17178506,0.166240541 L2.00619281,0.166240541 C1.56363009,0.166240541 1.18860486,0.325727027 0.878371687,0.6447 C0.570883942,0.964240541 0.4160419,1.35188919 0.4160419,1.80651081 L1.28908746,11.4352946 L3.64356504,11.4352946 Z" id="Fill-10" fill="#FEFEFE" mask="url(#mask-4)"></path>
                                        </g>
                                        <path d="M48.7827659,16.2297081 L50.5486241,16.2297081 C51.2981255,16.2297081 51.6726016,15.8420595 51.6726016,15.0661946 L51.6726016,13.1438432 L48.7827659,13.1438432 L48.7827659,16.2297081 Z" id="Fill-13" fill="#FEFEFE"></path>
                                    </g>
                                </g>
                            </g>
                        </g>
                    </g>
                </g>
            </g>
        </g>
    </g>
</svg>