<?xml version="1.0" encoding="UTF-8"?>
<svg width="151px" height="25px" viewBox="0 0 151 25" version="1.1" xmlns="http://www.w3.org/2000/svg" xmlns:xlink="http://www.w3.org/1999/xlink">
    <!-- Generator: sketchtool 60 (101010) - https://sketch.com -->
    <title>75D744F0-55DD-4AF2-B202-0E9100C16871@3.00x</title>
    <desc>Created with sketchtool.</desc>
    <defs>
        <path d="M61.1435514,0.0191666667 L60.9877225,0.025 C60.5286139,0.06 60.1407174,0.251666667 59.8089527,0.615 L59.8089527,0.615 C59.4403254,1.02 59.2643896,1.50083333 59.2643896,2.05833333 L59.2643896,2.05833333 L60.2831416,14.0425 L63.0570625,14.0425 L63.672,0 L61.1435514,0.0191666667 Z M49.250292,3.02 C49.0869231,3.03833333 48.9218785,3.05833333 48.7576718,3.0775 L48.7576718,3.0775 C48.6663527,3.09666667 48.5750337,3.09666667 48.502146,3.11583333 L48.502146,3.11583333 C48.3563706,3.135 48.2105953,3.17333333 48.0648199,3.21166667 L48.0648199,3.21166667 C47.9550695,3.25 47.8637504,3.27 47.7548378,3.28916667 L47.7548378,3.28916667 C47.626656,3.3275 47.5177434,3.36583333 47.4079929,3.40416667 L47.4079929,3.40416667 L47.0435545,3.53916667 L46.9162105,3.59666667 L46.7880287,3.65333333 C46.6422534,3.73083333 46.4956402,3.80833333 46.3507026,3.88583333 L46.3507026,3.88583333 L46.1856581,3.98166667 L46.0088845,4.0825 C45.891594,4.15416667 45.7784924,4.23083333 45.6570129,4.3075 L45.6570129,4.3075 L45.6025566,4.34666667 L45.4006494,4.5 C43.472058,6.01083333 42.2271028,8.40083333 42.2271028,11.0958333 L42.2271028,11.0958333 L42.2271028,11.25 L42.246372,11.3658333 L42.246372,25 L44.1615587,25 L44.3173876,24.9941667 C44.7806852,24.96 45.1828241,24.7666667 45.5112376,24.4041667 L45.5112376,24.4041667 C45.8941074,24 46.0767455,23.5383333 46.0767455,22.9808333 L46.0767455,22.9808333 L46.0767455,18.0583333 L46.305462,18.1925 C47.3803459,18.8041667 48.5968162,19.1733333 49.9071189,19.1733333 L49.9071189,19.1733333 C54.1563872,19.1733333 57.5854595,15.5391667 57.5854595,11.0775 L57.5854595,11.0775 C57.5854595,10.52 57.5318409,9.98083333 57.4405219,9.46166667 L57.4405219,9.46166667 C56.7108073,5.76916667 53.627742,3 49.9247125,3 L49.9247125,3 C49.6884559,3 49.4689551,3 49.250292,3.02 L49.250292,3.02 Z M46.1127704,11.0575 C46.1127704,8.76916667 47.8637504,6.92333333 50.0344629,6.92333333 L50.0344629,6.92333333 C52.2051755,6.92333333 53.9561555,8.76916667 53.9561555,11.0575 L53.9561555,11.0575 C53.9561555,13.3466667 52.2051755,15.1925 50.0344629,15.1925 L50.0344629,15.1925 C47.8637504,15.1733333 46.1127704,13.3275 46.1127704,11.0575 L46.1127704,11.0575 Z M30.1118293,4.75083333 C29.1877475,5.51333333 28.6507244,6.4975 28.5032735,7.68666667 L28.5032735,7.68666667 L32.3302958,7.68666667 L32.3964812,7.55 C32.5858216,7.19916667 32.8773723,6.96416667 33.2543776,6.8325 L33.2543776,6.8325 C34.3091545,6.46 37.2112573,6.27416667 37.2112573,7.98416667 L37.2112573,7.98416667 C37.2112573,9.3025 35.0480848,9.43333333 34.160028,9.56333333 L34.160028,9.56333333 C32.5330408,9.80416667 30.8700287,10.0833333 29.5203499,11.0866667 L29.5203499,11.0866667 C28.5778367,11.7741667 28.1153769,12.9266667 28.1153769,14.5433333 L28.1153769,14.5433333 C28.1153769,16.2708333 28.6322931,17.515 29.6678008,18.2591667 L29.6678008,18.2591667 C30.7033086,19.0016667 31.9046987,19.3925 33.2728089,19.3925 L33.2728089,19.3925 C33.9564452,19.3925 34.7523452,19.3358333 35.6395642,19.2441667 L35.6395642,19.2441667 C36.3232004,19.1691667 36.9892431,19.0016667 37.6184229,18.7425 L37.6184229,18.7425 C37.6360165,18.7608333 37.6544479,18.7975 37.6728793,18.8166667 L37.6728793,18.8166667 C38.0616136,19.1875 38.5048042,19.3925 39.0418273,19.3925 L39.0418273,19.3925 L40.9821477,19.3925 L40.9821477,7.7425 L40.9771209,7.51583333 C40.9193135,6.24833333 40.3663724,5.2475 39.3182978,4.52833333 L39.3182978,4.52833333 C38.2459273,3.80333333 36.6382093,3.43166667 34.5118996,3.43166667 L34.5118996,3.43166667 C32.6076041,3.43166667 31.1280679,3.85916667 30.1118293,4.75083333 L30.1118293,4.75083333 Z M32.1459821,15.955 C31.4246454,15.3983333 31.4799395,14.2825 31.9976934,13.65 L31.9976934,13.65 C32.6260355,12.8891667 33.9941457,12.8516667 34.955928,12.6475 L34.955928,12.6475 C35.9537353,12.4433333 36.7119347,12.22 37.2665514,11.9783333 L37.2665514,11.9783333 L37.2665514,13.2791667 L37.2615246,13.4833333 C37.2196352,14.3533333 36.9063019,15.0458333 36.3056068,15.5466667 L36.3056068,15.5466667 C35.6764269,16.1033333 34.8076393,16.3816667 33.698406,16.3816667 L33.698406,16.3816667 C33.013932,16.3633333 32.4970159,16.215 32.1459821,15.955 L32.1459821,15.955 Z M14.0019755,10.1933333 L14.0019755,19.3925 L17.9982313,19.3925 L17.9982313,10.0433333 L18.0024202,9.88916667 C18.0803346,8.4675 19.2322952,7.3225 20.6624018,7.3225 L20.6624018,7.3225 C22.1235066,7.3225 23.3257345,8.53166667 23.3257345,10.0433333 L23.3257345,10.0433333 L23.3450037,10.1558333 L23.3450037,17.4083333 L23.3508682,17.6 C23.3868932,18.0975 23.5678557,18.5091667 23.8811889,18.8441667 L23.8811889,18.8441667 C24.2514919,19.2225 24.7131139,19.3925 25.2861619,19.3925 L25.2861619,19.3925 L27.2842898,19.3925 L27.2842898,10.2883333 L27.2842898,10.2308333 C27.2817764,10.1933333 27.2784253,10.1558333 27.2666962,10.1183333 L27.2666962,10.1183333 C27.2289957,6.41583333 24.2690855,3.43166667 20.6431326,3.43166667 L20.6431326,3.43166667 C16.9618857,3.43166667 14.0019755,6.45416667 14.0019755,10.1933333 L14.0019755,10.1933333 Z M6.21723568,3.44916667 C4.49641611,3.45833333 3.10652337,3.8975 2.01739705,4.76583333 L2.01739705,4.76583333 C0.907326,5.7575 0.351871579,6.99583333 0.351871579,8.48333333 L0.351871579,8.48333333 C0.351871579,9.66416667 0.740605895,10.6175 1.49964316,11.3233333 L1.49964316,11.3233333 C2.18411716,12.0283333 3.53547158,12.6375 5.57213779,13.1525 L5.57213779,13.1525 C5.92317158,13.2675 6.42333189,13.3808333 7.12707505,13.515 L7.12707505,13.515 C8.73730642,13.8583333 9.53320642,14.3916667 9.53320642,15.1158333 L9.53320642,15.1158333 C9.53320642,15.5925 9.31119221,15.9541667 8.84789463,16.24 L8.84789463,16.24 C8.34857211,16.5075 7.75625495,16.6591667 7.07094316,16.6591667 L7.07094316,16.6591667 C6.10832305,16.6591667 5.34928579,16.4691667 4.7754,16.0683333 L4.7754,16.0683333 C4.23921474,15.6683333 3.96106863,15.0775 3.92420589,14.2958333 L3.92420589,14.2958333 L0,14.2958333 L0,14.4683333 C0,16.2016667 0.554616632,17.5175 1.66552547,18.4133333 L1.66552547,18.4133333 C2.73957158,19.3091667 4.36823432,19.7666667 6.53392011,19.7666667 L6.53392011,19.7666667 C8.82946326,19.7666667 10.5511206,19.3283333 11.6988922,18.4708333 L11.6988922,18.4708333 C12.9203893,17.5175 13.5311378,16.1833333 13.5311378,14.4483333 L13.5311378,14.4483333 C13.5311378,14.1241667 13.4942751,13.8008333 13.4381432,13.4958333 L13.4381432,13.4958333 C13.2538295,12.5808333 12.7352378,11.7991667 11.9946319,11.285 L11.9946319,11.285 C11.2732952,10.7891667 10.4028319,10.465 9.57006916,10.2166667 L9.57006916,10.2166667 C8.53288579,9.89333333 7.45967747,9.7025 6.42333189,9.41666667 L6.42333189,9.41666667 C5.905578,9.26416667 5.36771716,9.11166667 4.90525737,8.82583333 L4.90525737,8.82583333 C4.66481179,8.67333333 4.31294021,8.36833333 4.31294021,8.025 L4.31294021,8.025 C4.31294021,7.54916667 4.49809168,7.20583333 4.83153189,6.95833333 L4.83153189,6.95833333 C5.21942842,6.72916667 5.79331421,6.615 6.55318926,6.615 L6.55318926,6.615 C7.34825147,6.615 7.99670053,6.78666667 8.44072895,7.14833333 L8.44072895,7.14833333 C8.58901768,7.30083333 8.73730642,7.45416667 8.90318874,7.625 L8.90318874,7.625 C9.29192305,8.2925 9.84821526,8.635 10.569552,8.635 L10.569552,8.635 L13.0318153,8.635 C12.957252,7.05333333 12.3649348,5.77583333 11.254026,4.80416667 L11.254026,4.80416667 C10.0693917,3.88916667 8.47759168,3.45083333 6.49705737,3.45083333 L6.49705737,3.45083333 C6.42249411,3.45 6.34960642,3.44916667 6.27588095,3.44916667 L6.27588095,3.44916667 C6.25661179,3.44916667 6.23734263,3.44916667 6.21723568,3.44916667 L6.21723568,3.44916667 Z M59.6615018,15.51 L59.6615018,19.3925 L61.9453159,19.3925 L62.0869023,19.3883333 C62.9607167,19.3425 63.3980428,18.8583333 63.3980428,17.9358333 L63.3980428,17.9358333 L63.3980428,15.51 L59.6615018,15.51 Z" id="path-1"></path>
    </defs>
    <g id="Desktop-View" stroke="none" stroke-width="1" fill="none" fill-rule="evenodd">
        <g id="ðŸMerchant-Checkout" transform="translate(-1036.000000, -434.000000)">
            <g id="Shopping-Cart" transform="translate(150.000000, 64.000000)">
                <g id="Payment" transform="translate(790.000000, 0.000000)">
                    <g id="Content" transform="translate(24.000000, 144.000000)">
                        <g id="Payment---Snap" transform="translate(15.160000, 223.000000)">
                            <g id="Group-3" transform="translate(57.608000, 0.000000)">
                                <g id="Snap-logo" transform="translate(0.000000, 3.000000)">
                                    <mask id="mask-2" fill="white">
                                        <use xlink:href="#path-1"></use>
                                    </mask>
                                    <g id="Clip-58"></g>
                                    <polygon id="Fill-57" fill="#184E90" mask="url(#mask-2)" points="-3.23755932 28.2608696 69.0679322 28.2608696 69.0679322 -5.43478261 -3.23755932 -5.43478261"></polygon>
                                </g>
                                <text id="Headline-5-Copy" font-family="OpenSans-Bold, Open Sans" font-size="11" font-weight="bold" line-spacing="14" letter-spacing="0.0733337" fill="#184E90">
                                    <tspan x="73.0506667" y="12">Lease-to-own,</tspan>
                                    <tspan x="73.0506667" y="26">pay over time</tspan>
                                </text>
                            </g>
                        </g>
                    </g>
                </g>
            </g>
        </g>
    </g>
</svg>