<?xml version="1.0" encoding="UTF-8"?>
<svg width="30px" height="18px" viewBox="0 0 30 18" version="1.1" xmlns="http://www.w3.org/2000/svg" xmlns:xlink="http://www.w3.org/1999/xlink">
    <!-- Generator: sketchtool 60 (101010) - https://sketch.com -->
    <title>1CF7A50E-6F86-4F90-8630-7587F6CDA04A@3.00x</title>
    <desc>Created with sketchtool.</desc>
    <g id="Desktop-View" stroke="none" stroke-width="1" fill="none" fill-rule="evenodd">
        <g id="ðŸMerchant-Checkout" transform="translate(-1044.000000, -315.000000)">
            <g id="Shopping-Cart" transform="translate(150.000000, 64.000000)">
                <g id="Payment" transform="translate(790.000000, 0.000000)">
                    <g id="Content" transform="translate(24.000000, 144.000000)">
                        <g id="Payment-CreditCard" transform="translate(15.160000, 96.000000)">
                            <g id="Master-Card" transform="translate(64.682667, 11.000000)">
                                <g transform="translate(0.120000, 0.119993)">
                                    <polyline id="Fill-4" fill="#F1AD3D" points="20.9413527 17.7359361 21.4028503 17.7239402 21.8584374 17.6912672 22.3050789 17.6347602 22.7485256 17.5571026 23.1798317 17.4587677 23.6053872 17.3394401 24.0216775 17.1994354 24.4290222 17.0414367 24.8271019 16.8626032 25.2133605 16.6687747 25.5874787 16.4541112 25.9524915 16.2246108 26.3023287 15.9772743 26.640345 15.7149429 26.9662208 15.4376167 27.276921 15.1426123 27.5756404 14.8354541 27.8561492 14.513459 28.1216421 14.1796257 28.3719594 13.8339544 28.6042258 13.4731304 28.821636 13.1034673 29.0176407 12.7219662 29.1986296 12.3283113 29.3585324 11.926133 29.5003842 11.5144843 29.6211499 11.0943122 29.7206698 10.6679842 29.7991036 10.2298182 29.8562916 9.78865329 29.8895182 9.33849141 29.9016587 8.88233158 29.8895182 8.42917073 29.8562916 7.98216566 29.7991036 7.54084286 29.7206698 7.10867483 29.6211499 6.68234691 29.5003842 6.26501591 29.3585324 5.85368286 29.1986296 5.45418786 29.0176407 5.06368979 28.821636 4.68218865 28.6042258 4.31552454 28.3719594 3.95470053 28.1216421 3.6088714 27.8561492 3.27803715 27.5756404 2.95619981 27.276921 2.64904167 26.9662208 2.3568784 26.640345 2.07971001 26.3023287 1.81737864 25.9524915 1.56988431 25.5874787 1.34038383 25.2133605 1.12871936 24.8271019 0.935048731 24.4290222 0.756057296 24.0216775 0.598216524 23.6053872 0.458053919 23.1798317 0.338726296 22.7485256 0.240391495 22.3050789 0.162891676 21.8584374 0.106226839 21.4028503 0.0735537996 20.9413527 0.0615579009 20.4827304 0.0735537996 20.0271433 0.106226839 19.5806615 0.162891676 19.1400903 0.240391495 18.7087841 0.338726296 18.2833884 0.458053919 17.8699734 0.598216524 17.4627885 0.756057296 17.0675842 0.935048731 16.6843607 1.12871936 16.3104023 1.34038383 15.9482648 1.56988431 15.5982678 1.81737864 15.2604113 2.07971001 14.9375707 2.3568784 14.6268705 2.64904167 14.3311861 2.95619981 14.0506774 3.27803715 13.7851844 3.6088714 13.5377425 3.95470053 13.3053164 4.31552454 13.0912607 4.68218865 12.8922209 5.06368979 12.7141074 5.45418786 12.5542047 5.85368286 12.4155477 6.26501591 12.294782 6.68234691 12.1952621 7.10867483 12.1168283 7.54084286 12.0594805 7.98216566 12.026254 8.42917073 12.0141135 8.88233158 12.026254 9.33849141 12.0594805 9.78865329 12.1168283 10.2298182 12.1952621 10.6679842 12.294782 11.0943122 12.4155477 11.5144843 12.5542047 11.926133 12.7141074 12.3283113 12.8922209 12.7219662 13.0912607 13.1034673 13.3053164 13.4731304 13.5377425 13.8339544 13.7851844 14.1796257 14.0506774 14.513459 14.3311861 14.8354541 14.6268705 15.1426123 14.9375707 15.4376167 15.2604113 15.7149429 15.5982678 15.9772743 15.9482648 16.2246108 16.3104023 16.4541112 16.6843607 16.6687747 17.0675842 16.8626032 17.4627885 17.0414367 17.8699734 17.1994354 18.2833884 17.3394401 18.7087841 17.4587677 19.1400903 17.5571026 19.5806615 17.6347602 20.0271433 17.6912672 20.4827304 17.7239402 20.9413527 17.7359361"></polyline>
                                    <polyline id="Fill-5" fill="#D82332" points="8.97612055 17.7359361 9.43474279 17.7239402 9.89032991 17.6912672 10.3368117 17.6347602 10.7772232 17.5571026 11.2086891 17.4587677 11.6340848 17.3394401 12.04734 17.1994354 12.4546848 17.0414367 12.849889 16.8626032 13.2329528 16.6687747 13.6072307 16.4541112 13.9692084 16.2246108 14.3192054 15.9772743 14.6570619 15.7149429 14.9797428 15.4376167 15.2906028 15.1426123 15.5862871 14.8354541 15.8667959 14.513459 16.1322888 14.1796257 16.3797307 13.8339544 16.6119971 13.4731304 16.8262125 13.1034673 17.0252523 12.7219662 17.203206 12.3283113 17.3632686 11.926133 17.5019255 11.5144843 17.6225315 11.0943122 17.7222111 10.6679842 17.800645 10.2298182 17.8579927 9.78865329 17.8912193 9.33849141 17.9032 8.88233158 17.8912193 8.42917073 17.8579927 7.98216566 17.800645 7.54084286 17.7222111 7.10867483 17.6225315 6.68234691 17.5019255 6.26501591 17.3632686 5.85368286 17.203206 5.45418786 17.0252523 5.06368979 16.8262125 4.68218865 16.6119971 4.31552454 16.3797307 3.95470053 16.1322888 3.6088714 15.8667959 3.27803715 15.5862871 2.95619981 15.2906028 2.64904167 14.9797428 2.3568784 14.6570619 2.07971001 14.3192054 1.81737864 13.9692084 1.56988431 13.6072307 1.34038383 13.2329528 1.12871936 12.849889 0.935048731 12.4546848 0.756057296 12.04734 0.598216524 11.6340848 0.458053919 11.2086891 0.338726296 10.7772232 0.240391495 10.3368117 0.162891676 9.89032991 0.106226839 9.43474279 0.0735537996 8.97612055 0.0615579009 8.51462294 0.0735537996 8.05903582 0.106226839 7.61239431 0.162891676 7.16894766 0.240391495 6.73764149 0.338726296 6.3122458 0.458053919 5.89579572 0.598216524 5.488451 0.756057296 5.09037137 0.935048731 4.70411272 1.12871936 4.32999455 1.34038383 3.96498173 1.56988431 3.61498475 1.81737864 3.27712824 2.07971001 2.95125246 2.3568784 2.64055227 2.64904167 2.34183281 2.95619981 2.06132405 3.27803715 1.79583113 3.6088714 1.54535406 3.95470053 1.3130877 4.31552454 1.09583718 4.68218865 0.89967274 5.06368979 0.718843631 5.45418786 0.558940859 5.85368286 0.417089049 6.26501591 0.296323319 6.68234691 0.196803412 7.10867483 0.118369585 7.54084286 0.0610218372 7.98216566 0.0277952871 8.42917073 0.0158145599 8.88233158 0.0277952871 9.33849141 0.0610218372 9.78865329 0.118369585 10.2298182 0.196803412 10.6679842 0.296323319 11.0943122 0.417089049 11.5144843 0.558940859 11.926133 0.718843631 12.3283113 0.89967274 12.7219662 1.09583718 13.1034673 1.3130877 13.4731304 1.54535406 13.8339544 1.79583113 14.1796257 2.06132405 14.513459 2.34183281 14.8354541 2.64055227 15.1426123 2.95125246 15.4376167 3.27712824 15.7149429 3.61498475 15.9772743 3.96498173 16.2246108 4.32999455 16.4541112 4.70411272 16.6687747 5.09037137 16.8626032 5.488451 17.0414367 5.89579572 17.1994354 6.3122458 17.3394401 6.73764149 17.4587677 7.16894766 17.5571026 7.61239431 17.6347602 8.05903582 17.6912672 8.51462294 17.7239402 8.97612055 17.7359361"></polyline>
                                    <polyline id="Fill-6" fill="#F1AD3D" points="13.9118607 3.45103063 18.6635768 3.45103063 18.6635768 2.97103684 14.3220808 2.97103684 13.9118607 3.45103063"></polyline>
                                    <polyline id="Fill-7" fill="#F1AD3D" points="13.199886 4.51819209 18.6635768 4.51819209 18.6635768 4.03835614 13.486465 4.03835614 13.199886 4.51819209"></polyline>
                                    <polyline id="Fill-8" fill="#F1AD3D" points="12.6689002 5.58235457 18.6635768 5.58235457 18.6635768 5.10236078 12.8800804 5.10236078 12.6689002 5.58235457"></polyline>
                                    <polyline id="Fill-9" fill="#F1AD3D" points="12.3037276 6.64951603 18.6635768 6.64951603 18.6635768 6.16968008 12.4546848 6.16968008 12.3037276 6.64951603"></polyline>
                                    <polyline id="Fill-10" fill="#F1AD3D" points="12.5150676 11.8068054 18.6785927 11.8068054 18.6785927 11.3268116 12.3641105 11.3268116 12.5150676 11.8068054"></polyline>
                                    <polyline id="Fill-11" fill="#F1AD3D" points="12.970495 12.8739669 18.6785927 12.8739669 18.6785927 12.3939731 12.7442989 12.3939731 12.970495 12.8739669"></polyline>
                                    <polyline id="Fill-12" fill="#F1AD3D" points="13.6101061 13.9382872 18.6785927 13.9382872 18.6785927 13.4582934 13.3053164 13.4582934 13.6101061 13.9382872"></polyline>
                                    <polyline id="Fill-13" fill="#F1AD3D" points="14.4910889 15.0052908 18.6785927 15.0052908 18.6785927 14.5224559 14.0656932 14.5224559 14.4910889 15.0052908"></polyline>
                                    <polyline id="Fill-14" fill="#F1AD3D" points="12.0896719 7.71383635 18.6635768 7.71383635 18.6635768 7.23384256 12.1831216 7.23384256 12.0896719 7.71383635"></polyline>
                                    <polyline id="Fill-15" fill="#F1AD3D" points="16.0961869 10.7426429 18.603194 10.7426429 18.603194 10.2626491 16.1866014 10.2626491 16.0961869 10.7426429"></polyline>
                                    <polyline id="Fill-16" fill="#F1AD3D" points="16.2952267 9.67832259 18.603194 9.67832259 18.603194 9.19532983 16.385801 9.19532983 16.2952267 9.67832259"></polyline>
                                    <polyline id="Fill-17" fill="#F1AD3D" points="11.9236989 9.19532983 12.5754505 9.19532983 12.5754505 9.67832259 11.9538904 9.67832259 11.9236989 9.19532983"></polyline>
                                    <polyline id="Fill-18" fill="#FFFFFE" points="10.7078947 8.61416011 10.6655628 8.61116114 10.6233907 8.60516319 10.5840939 8.59916524 10.5449568 8.59316729 10.5086952 8.58732718 10.4695581 8.58132923 10.4302613 8.57533128 10.3880892 8.56933333 10.345917 8.56333538 10.2975149 8.56033641 10.243362 8.55749527 10.1860143 8.5544963 10.1225963 8.5544963 10.0532678 8.55749527 9.97467423 8.56333538 9.88729479 8.56933333 9.82691193 8.57833026 9.76956418 8.58732718 9.71828667 8.60516319 9.67307939 8.62299919 9.63074749 8.64383418 9.59161044 8.66782597 9.5342627 8.72433297 9.51621174 8.75716385 9.50103615 8.78999473 9.49496591 8.82566675 9.49496591 8.86165444 9.50407126 8.90032543 9.51621174 8.93899642 9.54033293 8.97782525 9.57052437 9.01649624 9.63074749 9.07300323 9.70327082 9.11798785 9.78761514 9.15665884 9.87818944 9.18948972 9.97467423 9.21916379 10.0741941 9.25199467 10.1738738 9.28782452 10.2703586 9.32665335 10.3609329 9.3771624 10.4454369 9.43982519 10.5208356 9.51432603 10.5840939 9.60666288 10.632496 9.71999256 10.6626875 9.85431505 10.6746682 10.0151548 10.6626875 10.2029853 10.6414416 10.3429901 10.6053397 10.4653167 10.5569376 10.5786464 10.4965547 10.6769812 10.4272262 10.7633201 10.3487924 10.8378209 10.2642883 10.9034827 10.1708387 10.9601475 10.0741941 11.0048164 9.97467423 11.0436453 9.8721192 11.0733193 9.7666888 11.0973111 9.66397404 11.1151471 9.56445413 11.1241441 9.46477448 11.130142 9.37132481 11.1329831 9.24161347 11.1329831 9.12100748 11.130142 9.01541734 11.130142 8.91573769 11.1269852 8.82532313 11.1241441 8.74385419 11.1179883 8.6714906 11.1121482 8.60200238 11.1033091 8.53874414 11.0973111 8.48139639 11.0853152 8.42404864 11.0764761 8.37277113 11.0614813 8.32149362 11.0496432 8.27325123 11.0318072 8.22484909 11.0138134 8.17357157 10.9958195 8.30935315 10.33715 8.33666921 10.3429901 8.36973601 10.351987 8.41190817 10.3639829 8.46318569 10.375821 8.51749832 10.3878169 8.57788118 10.3998128 8.64433428 10.414492 8.71669787 10.4266457 8.79209658 10.4384837 8.87053041 10.4503218 8.95199936 10.4594766 9.03650342 10.4683157 9.1240426 10.4713146 9.21142204 10.4741558 9.29896122 10.4741558 9.3865004 10.4713146 9.47387983 10.4534786 9.54336805 10.4294868 9.59768068 10.3966559 9.63985284 10.354986 9.67004427 10.313316 9.69416547 10.2654903 9.70934106 10.2178224 9.72132178 10.1731534 9.72739202 10.0866567 9.7002357 10.0123137 9.64895819 9.95264985 9.57339974 9.90182513 9.48298519 9.85715619 9.37739504 9.81248725 9.25966443 9.77065945 9.14209356 9.72314937 9.02148757 9.66948351 8.90679208 9.60666288 8.80120194 9.52916306 8.7045574 9.43682621 8.62915869 9.32349654 8.57484606 9.18948972 8.54768975 9.0283343 8.55072487 8.83766264 8.56590045 8.721334 8.58698653 8.61116114 8.61717797 8.50982736 8.65327989 8.41433369 8.70152229 8.32499582 8.75599466 8.24733816 8.8192529 8.17283731 8.89465161 8.10733339 8.98219079 8.05066856 9.07867558 8.00300064 9.18730084 7.95817386 9.30806657 7.92550082 9.44384814 7.89866789 9.59161044 7.87783291 9.75438859 7.86583701 9.93250207 7.86283804 10.0441624 7.86283804 10.1467175 7.86583701 10.2401671 7.86883599 10.3246712 7.87183496 10.4000699 7.87783291 10.4695581 7.88383086 10.5297813 7.88967097 10.5840939 7.89566892 10.6355311 7.90166687 10.6777033 7.91050595 10.7168403 7.9165039 10.753102 7.92250185 10.7832934 7.92834196 10.8104498 7.93134093 10.8376061 7.93749672 10.8617273 7.9404957 10.7078947 8.61416011"></polyline>
                                    <polyline id="Stroke-19" stroke="#FFFFFE" stroke-width="0.5" points="10.7078947 8.61416011 10.7078947 8.61416011 10.6655628 8.61116114 10.6233907 8.60516319 10.5840939 8.59916524 10.5449568 8.59316729 10.5086952 8.58732718 10.4695581 8.58132923 10.4302613 8.57533128 10.3880892 8.56933333 10.345917 8.56333538 10.2975149 8.56033641 10.243362 8.55749527 10.1860143 8.5544963 10.1225963 8.5544963 10.0532678 8.55749527 9.97467423 8.56333538 9.88729479 8.56933333 9.82691193 8.57833026 9.76956418 8.58732718 9.71828667 8.60516319 9.67307939 8.62299919 9.63074749 8.64383418 9.59161044 8.66782597 9.5342627 8.72433297 9.51621174 8.75716385 9.50103615 8.78999473 9.49496591 8.82566675 9.49496591 8.86165444 9.50407126 8.90032543 9.51621174 8.93899642 9.54033293 8.97782525 9.57052437 9.01649624 9.63074749 9.07300323 9.70327082 9.11798785 9.78761514 9.15665884 9.87818944 9.18948972 9.97467423 9.21916379 10.0741941 9.25199467 10.1738738 9.28782452 10.2703586 9.32665335 10.3609329 9.3771624 10.4454369 9.43982519 10.5208356 9.51432603 10.5840939 9.60666288 10.632496 9.71999256 10.6626875 9.85431505 10.6746682 10.0151548 10.6626875 10.2029853 10.6414416 10.3429901 10.6053397 10.4653167 10.5569376 10.5786464 10.4965547 10.6769812 10.4272262 10.7633201 10.3487924 10.8378209 10.2642883 10.9034827 10.1708387 10.9601475 10.0741941 11.0048164 9.97467423 11.0436453 9.8721192 11.0733193 9.7666888 11.0973111 9.66397404 11.1151471 9.56445413 11.1241441 9.46477448 11.130142 9.37132481 11.1329831 9.24161347 11.1329831 9.12100748 11.130142 9.01541734 11.130142 8.91573769 11.1269852 8.82532313 11.1241441 8.74385419 11.1179883 8.6714906 11.1121482 8.60200238 11.1033091 8.53874414 11.0973111 8.48139639 11.0853152 8.42404864 11.0764761 8.37277113 11.0614813 8.32149362 11.0496432 8.27325123 11.0318072 8.22484909 11.0138134 8.17357157 10.9958195 8.30935315 10.33715 8.33666921 10.3429901 8.36973601 10.351987 8.41190817 10.3639829 8.46318569 10.375821 8.51749832 10.3878169 8.57788118 10.3998128 8.64433428 10.414492 8.71669787 10.4266457 8.79209658 10.4384837 8.87053041 10.4503218 8.95199936 10.4594766 9.03650342 10.4683157 9.1240426 10.4713146 9.21142204 10.4741558 9.29896122 10.4741558 9.3865004 10.4713146 9.47387983 10.4534786 9.54336805 10.4294868 9.59768068 10.3966559 9.63985284 10.354986 9.67004427 10.313316 9.69416547 10.2654903 9.70934106 10.2178224 9.72132178 10.1731534 9.72739202 10.0866567 9.7002357 10.0123137 9.64895819 9.95264985 9.57339974 9.90182513 9.48298519 9.85715619 9.37739504 9.81248725 9.25966443 9.77065945 9.14209356 9.72314937 9.02148757 9.66948351 8.90679208 9.60666288 8.80120194 9.52916306 8.7045574 9.43682621 8.62915869 9.32349654 8.57484606 9.18948972 8.54768975 9.0283343 8.55072487 8.83766264 8.56590045 8.721334 8.58698653 8.61116114 8.61717797 8.50982736 8.65327989 8.41433369 8.70152229 8.32499582 8.75599466 8.24733816 8.8192529 8.17283731 8.89465161 8.10733339 8.98219079 8.05066856 9.07867558 8.00300064 9.18730084 7.95817386 9.30806657 7.92550082 9.44384814 7.89866789 9.59161044 7.87783291 9.75438859 7.86583701 9.93250207 7.86283804 10.0441624 7.86283804 10.1467175 7.86583701 10.2401671 7.86883599 10.3246712 7.87183496 10.4000699 7.87783291 10.4695581 7.88383086 10.5297813 7.88967097 10.5840939 7.89566892 10.6355311 7.90166687 10.6777033 7.91050595 10.7168403 7.9165039 10.753102 7.92250185 10.7832934 7.92834196 10.8104498 7.93134093 10.8376061 7.93749672 10.8617273 7.9404957 10.7078947 8.61416011"></polyline>
                                    <polyline id="Fill-20" fill="#FFFFFE" points="11.4229045 7.2041685 12.2585203 7.2041685 12.1348792 7.92550082 12.6387087 7.92550082 12.5300835 8.59916524 11.9990976 8.58432821 11.7094835 10.2476543 11.7064484 10.3073181 11.7214643 10.357985 11.7518154 10.3966559 11.7909525 10.4294868 11.8452651 10.4503218 11.905648 10.4683157 11.9719413 10.4801537 12.0443049 10.4861517 12.110758 10.4831527 12.1709811 10.4771547 12.2254535 10.4683157 12.2735362 10.4563198 12.3128329 10.4444817 12.3399893 10.4354848 12.3582 10.4294868 12.3641105 10.4266457 12.2585203 10.9809825 12.2374342 10.9958195 12.2163482 11.0078154 12.1952621 11.0196535 12.1740163 11.0318072 12.1529302 11.0406463 12.128809 11.0496432 12.1016527 11.0586401 12.0744963 11.0674792 12.0443049 11.0764761 12.0141135 11.0823163 11.9780116 11.0883142 11.9417499 11.0943122 11.9026128 11.1001523 11.8574056 11.1061502 11.8090034 11.1121482 11.7577259 11.1179883 11.5284947 11.1179883 11.4077289 11.1091492 11.3021388 11.0973111 11.205654 11.0793173 11.1241851 11.0586401 11.0548566 11.0318072 10.9975088 11.0018175 10.9460716 10.9661454 10.9069345 10.9273166 10.8769029 10.8856467 10.855657 10.8349798 10.8406412 10.784155 10.8315358 10.727648 10.8285007 10.6649853 10.8285007 10.5993235 10.8376061 10.5309784 10.8465517 10.4563198 11.4229045 7.2041685"></polyline>
                                    <polyline id="Stroke-21" stroke="#FFFFFE" stroke-width="0.5" points="11.4229045 7.2041685 12.2585203 7.2041685 12.1348792 7.92550082 12.6387087 7.92550082 12.5300835 8.59916524 11.9990976 8.58432821 11.7094835 10.2476543 11.7064484 10.3073181 11.7214643 10.357985 11.7518154 10.3966559 11.7909525 10.4294868 11.8452651 10.4503218 11.905648 10.4683157 11.9719413 10.4801537 12.0443049 10.4861517 12.110758 10.4831527 12.1709811 10.4771547 12.2254535 10.4683157 12.2735362 10.4563198 12.3128329 10.4444817 12.3399893 10.4354848 12.3582 10.4294868 12.3641105 10.4266457 12.2585203 10.9809825 12.2374342 10.9958195 12.2163482 11.0078154 12.1952621 11.0196535 12.1740163 11.0318072 12.1529302 11.0406463 12.128809 11.0496432 12.1016527 11.0586401 12.0744963 11.0674792 12.0443049 11.0764761 12.0141135 11.0823163 11.9780116 11.0883142 11.9417499 11.0943122 11.9026128 11.1001523 11.8574056 11.1061502 11.8090034 11.1121482 11.7577259 11.1179883 11.5284947 11.1179883 11.4077289 11.1091492 11.3021388 11.0973111 11.205654 11.0793173 11.1241851 11.0586401 11.0548566 11.0318072 10.9975088 11.0018175 10.9460716 10.9661454 10.9069345 10.9273166 10.8769029 10.8856467 10.855657 10.8349798 10.8406412 10.784155 10.8315358 10.727648 10.8285007 10.6649853 10.8285007 10.5993235 10.8376061 10.5309784 10.8465517 10.4563198 11.4229045 7.2041685"></polyline>
                                    <polyline id="Fill-22" fill="#FFFFFE" points="13.3053164 9.72314937 13.2963708 9.77365842 13.2933357 9.82732428 13.2994059 9.88398912 13.3115464 9.94065396 13.3326324 9.99731879 13.3567536 10.0509847 13.3899802 10.1074917 13.4260821 10.1581585 13.468414 10.2089833 13.5136213 10.2536522 13.5618637 10.2983211 13.6161763 10.334151 13.670489 10.3669819 13.7308718 10.3938148 13.7910949 10.414492 13.8514778 10.4266457 13.9299116 10.4384837 14.0053103 10.4473228 14.0839039 10.4563198 14.162178 10.4623177 14.2406118 10.4653167 14.3220808 10.4653167 14.4005146 10.4623177 14.4821433 10.4563198 14.5634525 10.4444817 14.6449214 10.4294868 14.7294255 10.4116508 14.8108944 10.3848179 14.8953985 10.351987 14.9827779 10.3161572 15.067282 10.2686471 15.1548212 10.2178224 15.0340554 10.9511506 14.9859728 10.9749845 14.9375707 10.9989763 14.8893283 11.0168123 14.844121 11.0346483 14.7989137 11.0496432 14.7505116 11.0644803 14.7022692 11.0764761 14.6509917 11.0853152 14.596679 11.0943122 14.5364559 11.1001523 14.4730379 11.1061502 14.4035497 11.1121482 14.3252756 11.1151471 14.2438067 11.1151471 14.1501973 11.1179883 14.0506774 11.1179883 13.9027553 11.1151471 13.7519579 11.1001523 13.6011605 11.0793173 13.4502033 11.0436453 13.302441 10.9989763 13.1605892 10.9421537 13.0248076 10.8678106 12.8981314 10.7813139 12.7804008 10.6799801 12.6778458 10.5578114 12.5904663 10.4206477 12.517943 10.2626491 12.4666655 10.0866567 12.4334389 9.88698809 12.4244933 9.66632669 12.4396689 9.42183134 12.4516496 9.32665335 12.4698603 9.21632266 12.4938218 9.09999401 12.5270483 8.97466843 12.5724154 8.84665957 12.6265683 8.71833502 12.6960565 8.58732718 12.7804008 8.46200161 12.8770453 8.34283182 12.9947759 8.22950215 13.1273627 8.12816838 13.2783198 8.0388305 13.4532384 7.96417181 13.6494029 7.91050595 13.8666534 7.87483394 14.1109005 7.86283804 14.2286311 7.86583701 14.3522722 7.87783291 14.476073 7.89866789 14.5997142 7.92834196 14.7203201 7.97316874 14.8380508 8.0268346 14.946676 8.09833647 15.0461959 8.18183424 15.1367702 8.28316801 15.2121689 8.40249564 15.272392 8.53965927 15.314724 8.69750004 15.3388451 8.87633363 15.3418803 9.07900118 15.3207942 9.30566053 15.2754272 9.55615384 15.2604113 9.73782856 13.0610693 9.73782856 13.199886 9.15066089 14.5212803 9.15066089 14.5273506 9.07616005 14.5243154 9.00465818 14.5182452 8.93899642 14.5062645 8.87949045 14.4850187 8.82266777 14.4639326 8.77200088 14.4337411 8.72733194 14.4035497 8.68566198 14.3674478 8.64983213 14.328151 8.62000022 14.2829437 8.59316729 14.2377364 8.56933333 14.1894941 8.55149733 14.1410919 8.53965927 14.0898144 8.53066234 14.0355018 8.52466439 13.978154 8.52766337 13.9240011 8.53650245 13.8725639 8.54849835 13.8212864 8.56633436 13.7700089 8.59016831 13.7248016 8.61715909 13.6795943 8.64983213 13.6402975 8.68566198 13.6011605 8.72733194 13.5648988 8.77200088 13.5316723 8.8196688 13.5046757 8.87049352 13.4773596 8.92415939 13.4562736 8.9838232 13.4382226 9.04332917 13.4260821 9.10583411 13.3053164 9.72314937"></polyline>
                                    <polyline id="Stroke-23" stroke="#FFFFFE" stroke-width="0.5" points="13.3053164 9.72314937 13.3053164 9.72314937 13.2963708 9.77365842 13.2933357 9.82732428 13.2994059 9.88398912 13.3115464 9.94065396 13.3326324 9.99731879 13.3567536 10.0509847 13.3899802 10.1074917 13.4260821 10.1581585 13.468414 10.2089833 13.5136213 10.2536522 13.5618637 10.2983211 13.6161763 10.334151 13.670489 10.3669819 13.7308718 10.3938148 13.7910949 10.414492 13.8514778 10.4266457 13.9299116 10.4384837 14.0053103 10.4473228 14.0839039 10.4563198 14.162178 10.4623177 14.2406118 10.4653167 14.3220808 10.4653167 14.4005146 10.4623177 14.4821433 10.4563198 14.5634525 10.4444817 14.6449214 10.4294868 14.7294255 10.4116508 14.8108944 10.3848179 14.8953985 10.351987 14.9827779 10.3161572 15.067282 10.2686471 15.1548212 10.2178224 15.0340554 10.9511506 14.9859728 10.9749845 14.9375707 10.9989763 14.8893283 11.0168123 14.844121 11.0346483 14.7989137 11.0496432 14.7505116 11.0644803 14.7022692 11.0764761 14.6509917 11.0853152 14.596679 11.0943122 14.5364559 11.1001523 14.4730379 11.1061502 14.4035497 11.1121482 14.3252756 11.1151471 14.2438067 11.1151471 14.1501973 11.1179883 14.0506774 11.1179883 13.9027553 11.1151471 13.7519579 11.1001523 13.6011605 11.0793173 13.4502033 11.0436453 13.302441 10.9989763 13.1605892 10.9421537 13.0248076 10.8678106 12.8981314 10.7813139 12.7804008 10.6799801 12.6778458 10.5578114 12.5904663 10.4206477 12.517943 10.2626491 12.4666655 10.0866567 12.4334389 9.88698809 12.4244933 9.66632669 12.4396689 9.42183134 12.4516496 9.32665335 12.4698603 9.21632266 12.4938218 9.09999401 12.5270483 8.97466843 12.5724154 8.84665957 12.6265683 8.71833502 12.6960565 8.58732718 12.7804008 8.46200161 12.8770453 8.34283182 12.9947759 8.22950215 13.1273627 8.12816838 13.2783198 8.0388305 13.4532384 7.96417181 13.6494029 7.91050595 13.8666534 7.87483394 14.1109005 7.86283804 14.2286311 7.86583701 14.3522722 7.87783291 14.476073 7.89866789 14.5997142 7.92834196 14.7203201 7.97316874 14.8380508 8.0268346 14.946676 8.09833647 15.0461959 8.18183424 15.1367702 8.28316801 15.2121689 8.40249564 15.272392 8.53965927 15.314724 8.69750004 15.3388451 8.87633363 15.3418803 9.07900118 15.3207942 9.30566053 15.2754272 9.55615384 15.2604113 9.73782856 13.0610693 9.73782856 13.199886 9.15066089 14.5212803 9.15066089 14.5273506 9.07616005 14.5243154 9.00465818 14.5182452 8.93899642 14.5062645 8.87949045 14.4850187 8.82266777 14.4639326 8.77200088 14.4337411 8.72733194 14.4035497 8.68566198 14.3674478 8.64983213 14.328151 8.62000022 14.2829437 8.59316729 14.2377364 8.56933333 14.1894941 8.55149733 14.1410919 8.53965927 14.0898144 8.53066234 14.0355018 8.52466439 13.978154 8.52766337 13.9240011 8.53650245 13.8725639 8.54849835 13.8212864 8.56633436 13.7700089 8.59016831 13.7248016 8.61715909 13.6795943 8.64983213 13.6402975 8.68566198 13.6011605 8.72733194 13.5648988 8.77200088 13.5316723 8.8196688 13.5046757 8.87049352 13.4773596 8.92415939 13.4562736 8.9838232 13.4382226 9.04332917 13.4260821 9.10583411 13.3053164 9.72314937"></polyline>
                                    <polyline id="Fill-24" fill="#FFFFFE" points="20.5007814 8.10433442 20.4616444 8.08349944 20.4225073 8.06566343 20.3801754 8.04467061 20.3349681 8.02383563 20.2897609 8.00599962 20.2383236 7.98800577 20.1870461 7.97016976 20.1327335 7.95233376 20.0755455 7.93749672 20.018038 7.92550082 19.9547797 7.91350493 19.8913617 7.90466584 19.8220333 7.89866789 19.752545 7.89266994 19.529384 7.89266994 19.4509502 7.89866789 19.3694813 7.90766482 19.2851369 7.92250185 19.2004731 7.94633581 19.1161288 7.97916669 19.0316248 8.02083665 18.9469609 8.07450251 18.8658115 8.14016427 18.7872179 8.21766409 18.7118192 8.31299992 18.6394556 8.42333062 18.5731623 8.5544963 18.5095845 8.70349799 18.4523965 8.87049352 18.4041541 9.06116518 18.3861032 9.1684969 18.373803 9.27282965 18.3677327 9.3771624 18.3709276 9.47865402 18.3800329 9.57982995 18.4009593 9.67532362 18.4281156 9.7646615 18.4613421 9.85431505 18.5067092 9.93465601 18.560862 10.0123137 18.62428 10.0806587 18.6966436 10.1433215 18.7782723 10.1969874 18.871722 10.2418141 18.974277 10.2804851 19.0889725 10.3073181 19.1281095 10.3161572 19.1733168 10.3251541 19.2276295 10.331152 19.2880123 10.33715 19.3543057 10.3429901 19.4991926 10.3429901 19.5745913 10.33715 19.6530251 10.3281531 19.7316187 10.313316 19.8068577 10.292481 19.8824161 10.2686471 19.9578148 10.2358162 20.0271433 10.1969874 20.0905613 10.1493195 20.1509442 10.0956536 20.0151626 10.8916446 19.9971116 10.9064816 19.9789009 10.9243176 19.9547797 10.9453105 19.9276234 10.9631465 19.8943969 10.9869804 19.852065 11.0078154 19.8039823 11.0286504 19.7496697 11.0464864 19.6801815 11.0674792 19.6017476 11.0823163 19.5113331 11.0943122 19.4055832 11.1061502 19.2880123 11.1121482 19.1523905 11.1151471 18.9983982 11.1121482 18.8293901 11.1033091 18.6907331 11.0883142 18.5519164 11.0586401 18.4132595 11.0138134 18.2742831 10.9541496 18.1415366 10.8826477 18.0148604 10.793152 17.8942544 10.6889771 17.782594 10.5696494 17.6829144 10.4354848 17.59857 10.2864831 17.5262064 10.1194876 17.4718938 9.93765498 17.4356322 9.73782856 17.4234917 9.52632193 17.4295619 9.29382247 17.4627885 9.04632814 17.4869097 8.92415939 17.514066 8.80483176 17.5442574 8.68866096 17.5744488 8.57833026 17.6076754 8.47399751 17.6468124 8.36966476 17.6861092 8.27132996 17.7281216 8.17883526 17.7736484 8.08634057 17.8188557 8.00000167 17.8699734 7.9165039 17.9242861 7.83900408 17.9787584 7.76450324 18.0389816 7.69300137 18.0993644 7.62733961 18.1626227 7.56483466 18.2321109 7.50517085 18.3014394 7.44850601 18.373803 7.39783913 18.4493614 7.35017121 18.5308304 7.30534443 18.6122993 7.26667344 18.6966436 7.23084359 18.7841828 7.19801271 18.8777922 7.16833864 18.9712419 7.14450469 19.0677267 7.12351186 19.1704414 7.10567586 19.2728367 7.09068098 19.3816217 7.07884293 19.490247 7.07284498 19.6049425 7.07000384 19.7014273 7.07284498 19.7948769 7.07884293 19.8852915 7.08768201 19.9758658 7.09967791 20.0603699 7.11167381 20.1418388 7.12950981 20.2202726 7.14450469 20.2926362 7.16234069 20.3621244 7.1801767 20.4225073 7.19801271 20.4796953 7.21600656 20.5280975 7.23384256 20.5702696 7.24883744 20.6063715 7.26067549 20.6336876 7.27267139 20.6515788 7.27866934 20.5007814 8.10433442"></polyline>
                                    <polyline id="Stroke-25" stroke="#FFFFFE" stroke-width="0.5" points="20.5007814 8.10433442 20.5007814 8.10433442 20.4616444 8.08349944 20.4225073 8.06566343 20.3801754 8.04467061 20.3349681 8.02383563 20.2897609 8.00599962 20.2383236 7.98800577 20.1870461 7.97016976 20.1327335 7.95233376 20.0755455 7.93749672 20.018038 7.92550082 19.9547797 7.91350493 19.8913617 7.90466584 19.8220333 7.89866789 19.752545 7.89266994 19.529384 7.89266994 19.4509502 7.89866789 19.3694813 7.90766482 19.2851369 7.92250185 19.2004731 7.94633581 19.1161288 7.97916669 19.0316248 8.02083665 18.9469609 8.07450251 18.8658115 8.14016427 18.7872179 8.21766409 18.7118192 8.31299992 18.6394556 8.42333062 18.5731623 8.5544963 18.5095845 8.70349799 18.4523965 8.87049352 18.4041541 9.06116518 18.3861032 9.1684969 18.373803 9.27282965 18.3677327 9.3771624 18.3709276 9.47865402 18.3800329 9.57982995 18.4009593 9.67532362 18.4281156 9.7646615 18.4613421 9.85431505 18.5067092 9.93465601 18.560862 10.0123137 18.62428 10.0806587 18.6966436 10.1433215 18.7782723 10.1969874 18.871722 10.2418141 18.974277 10.2804851 19.0889725 10.3073181 19.1281095 10.3161572 19.1733168 10.3251541 19.2276295 10.331152 19.2880123 10.33715 19.3543057 10.3429901 19.4991926 10.3429901 19.5745913 10.33715 19.6530251 10.3281531 19.7316187 10.313316 19.8068577 10.292481 19.8824161 10.2686471 19.9578148 10.2358162 20.0271433 10.1969874 20.0905613 10.1493195 20.1509442 10.0956536 20.0151626 10.8916446 19.9971116 10.9064816 19.9789009 10.9243176 19.9547797 10.9453105 19.9276234 10.9631465 19.8943969 10.9869804 19.852065 11.0078154 19.8039823 11.0286504 19.7496697 11.0464864 19.6801815 11.0674792 19.6017476 11.0823163 19.5113331 11.0943122 19.4055832 11.1061502 19.2880123 11.1121482 19.1523905 11.1151471 18.9983982 11.1121482 18.8293901 11.1033091 18.6907331 11.0883142 18.5519164 11.0586401 18.4132595 11.0138134 18.2742831 10.9541496 18.1415366 10.8826477 18.0148604 10.793152 17.8942544 10.6889771 17.782594 10.5696494 17.6829144 10.4354848 17.59857 10.2864831 17.5262064 10.1194876 17.4718938 9.93765498 17.4356322 9.73782856 17.4234917 9.52632193 17.4295619 9.29382247 17.4627885 9.04632814 17.4869097 8.92415939 17.514066 8.80483176 17.5442574 8.68866096 17.5744488 8.57833026 17.6076754 8.47399751 17.6468124 8.36966476 17.6861092 8.27132996 17.7281216 8.17883526 17.7736484 8.08634057 17.8188557 8.00000167 17.8699734 7.9165039 17.9242861 7.83900408 17.9787584 7.76450324 18.0389816 7.69300137 18.0993644 7.62733961 18.1626227 7.56483466 18.2321109 7.50517085 18.3014394 7.44850601 18.373803 7.39783913 18.4493614 7.35017121 18.5308304 7.30534443 18.6122993 7.26667344 18.6966436 7.23084359 18.7841828 7.19801271 18.8777922 7.16833864 18.9712419 7.14450469 19.0677267 7.12351186 19.1704414 7.10567586 19.2728367 7.09068098 19.3816217 7.07884293 19.490247 7.07284498 19.6049425 7.07000384 19.7014273 7.07284498 19.7948769 7.07884293 19.8852915 7.08768201 19.9758658 7.09967791 20.0603699 7.11167381 20.1418388 7.12950981 20.2202726 7.14450469 20.2926362 7.16234069 20.3621244 7.1801767 20.4225073 7.19801271 20.4796953 7.21600656 20.5280975 7.23384256 20.5702696 7.24883744 20.6063715 7.26067549 20.6336876 7.27267139 20.6515788 7.27866934 20.5007814 8.10433442"></polyline>
                                    <polyline id="Fill-26" fill="#FFFFFE" points="27.9285128 11.1179883 27.092897 11.1179883 27.1531201 10.7873119 27.1531201 10.7573221 27.1050375 10.8169859 27.0536002 10.8706518 27.0023227 10.9184775 26.9480101 10.9601475 26.8936974 10.9989763 26.8395445 11.0318072 26.7852319 11.0586401 26.7277244 11.0853152 26.6705364 11.1061502 26.5558409 11.13614 26.4954581 11.144979 26.4350752 11.153976 26.3778872 11.1598161 26.3175043 11.1629729 26.2571215 11.1629729 26.1004135 11.1508192 25.9553669 11.1179883 25.8226204 11.0674792 25.7020144 10.9989763 25.5933892 10.9124796 25.4969044 10.8111458 25.4124003 10.7008151 25.3400367 10.5756474 25.2796539 10.4413249 25.2314115 10.301478 25.1981849 10.1553174 25.1740637 10.0033167 25.1649584 9.85115824 25.1681532 9.6961586 25.1830093 9.54415794 25.2101656 9.39215727 25.2555327 9.21632266 25.3098453 9.04932712 25.3732633 8.89732646 25.448662 8.75416488 25.5270958 8.62000022 25.6175104 8.50083044 25.7111198 8.39349871 25.8106397 8.29516391 25.9162298 8.20866717 26.0280499 8.13416632 26.1425857 8.0686624 26.2571215 8.01783768 26.3778872 7.97616771 26.4984932 7.94933478 26.6192589 7.93134093 26.7429 7.92550082 26.8304392 7.92834196 26.9147835 7.93749672 26.9932173 7.95233376 27.0657407 7.97316874 27.1350691 7.99700269 27.195452 8.02383563 27.2558349 8.05666651 27.3101475 8.08933955 27.3583899 8.1251694 27.4035972 8.16399823 27.4427342 8.20266922 27.4791556 8.24149805 27.5091873 8.28032688 27.5363436 8.31899787 27.5604648 8.35482772 27.5786755 8.39049974 27.7898558 7.21900553 28.6104558 7.21900553 27.9285128 11.1179883"></polyline>
                                    <polyline id="Stroke-27" stroke="#FFFFFE" stroke-width="0.5" points="27.9285128 11.1179883 27.092897 11.1179883 27.1531201 10.7873119 27.1531201 10.7573221 27.1050375 10.8169859 27.0536002 10.8706518 27.0023227 10.9184775 26.9480101 10.9601475 26.8936974 10.9989763 26.8395445 11.0318072 26.7852319 11.0586401 26.7277244 11.0853152 26.6705364 11.1061502 26.5558409 11.13614 26.4954581 11.144979 26.4350752 11.153976 26.3778872 11.1598161 26.3175043 11.1629729 26.2571215 11.1629729 26.1004135 11.1508192 25.9553669 11.1179883 25.8226204 11.0674792 25.7020144 10.9989763 25.5933892 10.9124796 25.4969044 10.8111458 25.4124003 10.7008151 25.3400367 10.5756474 25.2796539 10.4413249 25.2314115 10.301478 25.1981849 10.1553174 25.1740637 10.0033167 25.1649584 9.85115824 25.1681532 9.6961586 25.1830093 9.54415794 25.2101656 9.39215727 25.2555327 9.21632266 25.3098453 9.04932712 25.3732633 8.89732646 25.448662 8.75416488 25.5270958 8.62000022 25.6175104 8.50083044 25.7111198 8.39349871 25.8106397 8.29516391 25.9162298 8.20866717 26.0280499 8.13416632 26.1425857 8.0686624 26.2571215 8.01783768 26.3778872 7.97616771 26.4984932 7.94933478 26.6192589 7.93134093 26.7429 7.92550082 26.8304392 7.92834196 26.9147835 7.93749672 26.9932173 7.95233376 27.0657407 7.97316874 27.1350691 7.99700269 27.195452 8.02383563 27.2558349 8.05666651 27.3101475 8.08933955 27.3583899 8.1251694 27.4035972 8.16399823 27.4427342 8.20266922 27.4791556 8.24149805 27.5091873 8.28032688 27.5363436 8.31899787 27.5604648 8.35482772 27.5786755 8.39049974 27.7898558 7.21900553 28.6104558 7.21900553 27.9285128 11.1179883"></polyline>
                                    <polyline id="Fill-28" fill="#F1AD3D" points="26.5619112 10.3966559 26.6464152 10.3908158 26.724849 10.3729798 26.7972126 10.351987 26.8667009 10.3191561 26.9299591 10.2833263 26.990342 10.2386573 27.04753 10.1881483 27.0989672 10.1343246 27.1441745 10.0748186 27.1863467 10.0091569 27.2256434 9.94065396 27.25887 9.86899425 27.2889017 9.79465124 27.3130229 9.71715142 27.334109 9.63665263 27.3492845 9.55615384 27.3644601 9.47265607 27.3734057 9.38615933 27.3734057 9.30566053 27.3703706 9.2223206 27.361425 9.14466294 27.3492845 9.0701621 27.3281985 8.99866023 27.3040773 8.9299995 27.2738858 8.87049352 27.2377839 8.81382869 27.1984871 8.76616077 27.1531201 8.72433297 27.1018426 8.68866096 27.04753 8.66466916 26.990342 8.64983213 26.926924 8.64383418 26.845455 8.64983213 26.7700563 8.66182802 26.7005681 8.68566198 26.6312396 8.71549389 26.5708568 8.75416488 26.5106336 8.80199063 26.4593561 8.85265752 26.4079189 8.90916451 26.3627116 8.97466843 26.3205394 9.04332917 26.2812426 9.11483104 26.2480161 9.19233086 26.2179844 9.27282965 26.1938632 9.35332844 26.1695823 9.43982519 26.1516911 9.52632193 26.1365155 9.65748761 26.1425857 9.80049135 26.1636718 9.94665191 26.2028088 10.0866567 26.2631917 10.2089833 26.3416255 10.3073181 26.4411454 10.3729798 26.5619112 10.3966559"></polyline>
                                    <polyline id="Fill-29" fill="#FFFFFE" points="8.03475488 10.4563198 7.9141489 11.1179883 7.15393182 11.1179883 7.1750179 10.9958195 7.19019349 10.8856467 7.20217421 10.8023067 7.21431468 10.7573221 7.17198278 10.8051479 7.12374039 10.8528158 7.06639264 10.8974847 7.0031344 10.9393125 6.93061106 10.9809825 6.85521235 11.0168123 6.77677853 11.0524844 6.69530958 11.0823163 6.6077704 11.1091492 6.52039097 11.130142 6.43285179 11.147978 6.34243723 11.1598161 6.25489805 11.165814 6.16735887 11.168813 6.08285481 11.1598161 6.00138586 11.147978 5.89579572 11.1211451 5.79931093 11.091471 5.71480687 11.0524844 5.63940816 11.0078154 5.5731148 10.9601475 5.51273194 10.9064816 5.46448954 10.8498168 5.42215764 10.790153 5.38589597 10.727648 5.35586428 10.6619863 5.33158334 10.5964824 5.31353238 10.5309784 5.30155165 10.4623177 5.2924463 10.3938148 5.28637607 10.3281531 5.28637607 10.2626491 5.29548142 10.1463205 5.31353238 10.0359898 5.34372381 9.93165703 5.38286085 9.83032326 5.43126299 9.73498743 5.48557562 9.64849069 5.54883386 9.56515076 5.6213572 9.49049208 5.69675591 9.42183134 5.78125997 9.35932639 5.86863941 9.3028194 5.9592137 9.25499364 6.05569849 9.21332368 6.15537814 9.1804928 6.25793317 9.15365987 6.36336357 9.13582386 6.36959355 9.13582386 6.38460939 9.13266705 6.40585521 9.12982591 6.43892202 9.12682694 6.47502395 9.12082899 6.51735585 9.11798785 6.56256313 9.11183206 6.61384064 9.10583411 6.66511815 9.09999401 6.71639566 9.09399606 6.77070829 9.09115492 6.81911043 9.08515697 6.86735283 9.082158 6.9125601 9.07900118 6.95489201 9.07616005 7.05744703 9.07616005 7.12981062 9.07900118 7.19610398 9.082158 7.26255708 9.082158 7.31686971 9.08515697 7.35904187 9.08799811 7.3892333 9.09115492 7.39817891 9.09115492 7.40440889 9.0701621 7.42245985 9.01649624 7.4374757 8.95399129 7.44354593 8.89732646 7.43140546 8.83166469 7.40440889 8.77200088 7.36814722 8.71833502 7.31990483 8.67366608 7.26255708 8.63499509 7.1991391 8.60816216 7.1267755 8.59016831 7.04834168 8.58432821 6.96383761 8.58132923 6.87326332 8.57833026 6.77981365 8.57833026 6.68316911 8.58132923 6.58364921 8.58732718 6.48716442 8.59616626 6.39067963 8.60516319 6.29707021 8.61715909 6.20665566 8.62899714 6.11911648 8.64383418 6.04068265 8.65882905 5.96831906 8.67366608 5.90186596 8.69165993 5.84755333 8.70949594 5.80538117 8.73033092 5.77215462 8.74816693 5.98637002 8.02983357 6.05266338 8.00300064 6.11911648 7.97916669 6.19148007 7.95817386 6.26384366 7.94333683 6.336367 7.92834196 6.41480082 7.9165039 6.49323465 7.90466584 6.5747036 7.89866789 6.65920766 7.89266994 6.7465871 7.88967097 6.83716139 7.88667199 7.1267755 7.88667199 7.23236565 7.88967097 7.33795579 7.89266994 7.42245985 7.89866789 7.51287441 7.91350493 7.60648382 7.93449775 7.70296861 7.96117284 7.79657803 7.99700269 7.88699258 8.0388305 7.97756688 8.08933955 8.06207094 8.14600438 8.13730991 8.21166614 8.20376301 8.28316801 8.26414587 8.36366681 8.30935315 8.45316252 8.33954458 8.54849835 8.35759554 8.64983213 8.35759554 8.7631618 8.33954458 8.88233158 8.03475488 10.4563198"></polyline>
                                    <polyline id="Stroke-30" stroke="#FFFFFE" stroke-width="0.5" points="8.03475488 10.4563198 7.9141489 11.1179883 7.15393182 11.1179883 7.1750179 10.9958195 7.19019349 10.8856467 7.20217421 10.8023067 7.21431468 10.7573221 7.17198278 10.8051479 7.12374039 10.8528158 7.06639264 10.8974847 7.0031344 10.9393125 6.93061106 10.9809825 6.85521235 11.0168123 6.77677853 11.0524844 6.69530958 11.0823163 6.6077704 11.1091492 6.52039097 11.130142 6.43285179 11.147978 6.34243723 11.1598161 6.25489805 11.165814 6.16735887 11.168813 6.08285481 11.1598161 6.00138586 11.147978 5.89579572 11.1211451 5.79931093 11.091471 5.71480687 11.0524844 5.63940816 11.0078154 5.5731148 10.9601475 5.51273194 10.9064816 5.46448954 10.8498168 5.42215764 10.790153 5.38589597 10.727648 5.35586428 10.6619863 5.33158334 10.5964824 5.31353238 10.5309784 5.30155165 10.4623177 5.2924463 10.3938148 5.28637607 10.3281531 5.28637607 10.2626491 5.29548142 10.1463205 5.31353238 10.0359898 5.34372381 9.93165703 5.38286085 9.83032326 5.43126299 9.73498743 5.48557562 9.64849069 5.54883386 9.56515076 5.6213572 9.49049208 5.69675591 9.42183134 5.78125997 9.35932639 5.86863941 9.3028194 5.9592137 9.25499364 6.05569849 9.21332368 6.15537814 9.1804928 6.25793317 9.15365987 6.36336357 9.13582386 6.36959355 9.13582386 6.38460939 9.13266705 6.40585521 9.12982591 6.43892202 9.12682694 6.47502395 9.12082899 6.51735585 9.11798785 6.56256313 9.11183206 6.61384064 9.10583411 6.66511815 9.09999401 6.71639566 9.09399606 6.77070829 9.09115492 6.81911043 9.08515697 6.86735283 9.082158 6.9125601 9.07900118 6.95489201 9.07616005 7.05744703 9.07616005 7.12981062 9.07900118 7.19610398 9.082158 7.26255708 9.082158 7.31686971 9.08515697 7.35904187 9.08799811 7.3892333 9.09115492 7.39817891 9.09115492 7.40440889 9.0701621 7.42245985 9.01649624 7.4374757 8.95399129 7.44354593 8.89732646 7.43140546 8.83166469 7.40440889 8.77200088 7.36814722 8.71833502 7.31990483 8.67366608 7.26255708 8.63499509 7.1991391 8.60816216 7.1267755 8.59016831 7.04834168 8.58432821 6.96383761 8.58132923 6.87326332 8.57833026 6.77981365 8.57833026 6.68316911 8.58132923 6.58364921 8.58732718 6.48716442 8.59616626 6.39067963 8.60516319 6.29707021 8.61715909 6.20665566 8.62899714 6.11911648 8.64383418 6.04068265 8.65882905 5.96831906 8.67366608 5.90186596 8.69165993 5.84755333 8.70949594 5.80538117 8.73033092 5.77215462 8.74816693 5.98637002 8.02983357 6.05266338 8.00300064 6.11911648 7.97916669 6.19148007 7.95817386 6.26384366 7.94333683 6.336367 7.92834196 6.41480082 7.9165039 6.49323465 7.90466584 6.5747036 7.89866789 6.65920766 7.89266994 6.7465871 7.88967097 6.83716139 7.88667199 7.1267755 7.88667199 7.23236565 7.88967097 7.33795579 7.89266994 7.42245985 7.89866789 7.51287441 7.91350493 7.60648382 7.93449775 7.70296861 7.96117284 7.79657803 7.99700269 7.88699258 8.0388305 7.97756688 8.08933955 8.06207094 8.14600438 8.13730991 8.21166614 8.20376301 8.28316801 8.26414587 8.36366681 8.30935315 8.45316252 8.33954458 8.54849835 8.35759554 8.64983213 8.35759554 8.7631618 8.33954458 8.88233158 8.03475488 10.4563198"></polyline>
                                    <polyline id="Fill-31" fill="#D82332" points="7.30776436 9.67832259 7.30472924 9.66348556 7.29274851 9.64849069 7.27453781 9.63949376 7.24450612 9.63349581 7.21127957 9.62765571 7.17198278 9.62465673 7.08156823 9.62465673 7.03316609 9.62765571 6.98188858 9.63349581 6.93364618 9.63949376 6.88540379 9.64549171 6.84019651 9.65133182 6.79786461 9.66048659 6.76176268 9.66948351 6.72853613 9.67832259 6.70729031 9.6841627 6.68316911 9.69315963 6.65010231 9.70515552 6.61687576 9.71999256 6.57757897 9.73782856 6.53844193 9.75882139 6.49626977 9.77965637 6.45697298 9.80349033 6.41480082 9.83332223 6.37550404 9.8629963 6.33940211 9.89898399 6.30617556 9.93465601 6.27598413 9.97348484 6.25489805 10.0151548 6.23668735 10.0628227 6.22774174 10.1106485 6.22470662 10.2118244 6.23972246 10.292481 6.2699139 10.351987 6.30921068 10.3966559 6.35441796 10.4266457 6.40585521 10.4444817 6.45393787 10.4534786 6.50234 10.4563198 6.59275456 10.4534786 6.6742235 10.4444817 6.75265733 10.4324858 6.8219858 10.414492 6.88236867 10.3938148 6.93971642 10.3669819 6.99099393 10.3401489 7.03620121 10.3073181 7.07549799 10.2774862 7.11175966 10.2418141 7.14179135 10.2089833 7.16591255 10.1731534 7.18715837 10.1374814 7.20520933 10.1016515 7.22022518 10.0688207 7.22933053 10.0359898 7.25345173 9.94965088 7.27453781 9.85115824 7.29274851 9.75582241 7.30776436 9.67832259"></polyline>
                                    <polyline id="Fill-32" fill="#FFFFFE" points="1.68720587 11.1179883 0.866605933 11.1179883 1.5514243 7.2041685 2.97840878 7.2041685 3.11419035 9.52632193 4.1007633 7.2041685 5.59116576 7.2041685 4.89117181 11.1179883 4.07057187 11.1179883 4.58941723 8.19383014 4.55635042 8.19383014 3.32840576 11.1179883 2.40221567 11.1179883 2.39614544 10.9958195 2.37505936 10.6708254 2.34790304 10.2089833 2.28752018 9.14466294 2.26036386 8.67666506 2.23927778 8.33683388 2.23320755 8.19383014 2.18800027 8.19383014 1.68720587 11.1179883"></polyline>
                                    <polyline id="Stroke-33" stroke="#FFFFFE" stroke-width="0.5" points="1.68720587 11.1179883 0.866605933 11.1179883 1.5514243 7.2041685 2.97840878 7.2041685 3.11419035 9.52632193 4.1007633 7.2041685 5.59116576 7.2041685 4.89117181 11.1179883 4.07057187 11.1179883 4.58941723 8.19383014 4.55635042 8.19383014 3.32840576 11.1179883 2.40221567 11.1179883 2.39614544 10.9958195 2.37505936 10.6708254 2.34790304 10.2089833 2.28752018 9.14466294 2.26036386 8.67666506 2.23927778 8.33683388 2.23320755 8.19383014 2.18800027 8.19383014 1.68720587 11.1179883"></polyline>
                                    <polyline id="Fill-34" fill="#FFFFFE" points="23.0079482 10.4563198 22.8843071 11.1179883 22.1271252 11.1179883 22.1330357 10.9958195 22.1360708 10.8884878 22.1360708 10.8081468 22.1419813 10.772317 22.1028442 10.8169859 22.057637 10.8616549 22.0033243 10.9034827 21.9429415 10.9453105 21.8796832 10.9839815 21.8071599 11.0196535 21.7317612 11.0554833 21.6563625 11.0853152 21.5748935 11.1091492 21.4903895 11.1329831 21.4058854 11.147978 21.3215411 11.1598161 21.2340019 11.165814 21.1494978 11.168813 21.0680289 11.1598161 20.9865599 11.147978 20.8779347 11.1211451 20.7814499 11.091471 20.6969458 11.0524844 20.618512 11.0078154 20.5520589 10.9601475 20.4948709 10.9064816 20.4464688 10.8498168 20.4042966 10.790153 20.3681947 10.727648 20.3410384 10.6619863 20.3169172 10.5964824 20.3017416 10.5309784 20.2897609 10.4623177 20.2806555 10.3938148 20.2745853 10.3281531 20.2745853 10.2626491 20.2806555 10.1463205 20.2987065 10.0359898 20.3258628 9.93165703 20.3649998 9.83032326 20.4103668 9.73498743 20.4677146 9.64849069 20.5309728 9.56515076 20.600461 9.49049208 20.6787351 9.42183134 20.7603638 9.35932639 20.8477433 9.3028194 20.9413527 9.25499364 21.0349621 9.21332368 21.134482 9.1804928 21.2340019 9.15365987 21.3365569 9.13582386 21.3424674 9.13582386 21.357643 9.13266705 21.3787291 9.12982591 21.4089205 9.12682694 21.4482173 9.12082899 21.4903895 9.11798785 21.5355967 9.11183206 21.5838391 9.10583411 21.6352764 9.09999401 21.6894293 9.09399606 21.7408665 9.09115492 21.792144 9.08515697 21.8403864 9.082158 21.8825586 9.07900118 21.9248905 9.07616005 22.0304806 9.07616005 22.1028442 9.07900118 22.1721727 9.082158 22.2386258 9.082158 22.2959736 9.08515697 22.344216 9.08799811 22.3713723 9.09115492 22.3835127 9.09115492 22.3894232 9.0701621 22.3985286 9.01649624 22.4074742 8.95399129 22.4137042 8.89732646 22.401404 8.83166469 22.3774425 8.77200088 22.3381457 8.71833502 22.2929384 8.67366608 22.2386258 8.63499509 22.1752078 8.60816216 22.1087547 8.59016831 22.0363911 8.58432821 21.9520468 8.58132923 21.8614725 8.57833026 21.7680228 8.57833026 21.6713783 8.58132923 21.5718584 8.58732718 21.4753736 8.59616626 21.3787291 8.60516319 21.2852794 8.61715909 21.1948649 8.62899714 21.1073257 8.64383418 21.0288918 8.65882905 20.9563685 8.67366608 20.8899154 8.69165993 20.8357625 8.70949594 20.7934306 8.73033092 20.7603638 8.74816693 20.9715441 8.02983357 21.0378375 8.00300064 21.1073257 7.97916669 21.1764944 7.95817386 21.2491775 7.94333683 21.3244165 7.92834196 21.3999749 7.9165039 21.478249 7.90466584 21.5598777 7.89866789 21.644222 7.89266994 21.7317612 7.88967097 21.8193004 7.88667199 22.1028442 7.88667199 22.2053993 7.88967097 22.3079543 7.89266994 22.3924583 7.89866789 22.4830326 7.91350493 22.5764823 7.93449775 22.6731268 7.96117284 22.7667363 7.99700269 22.8600262 8.0388305 22.9506005 8.08933955 23.0351046 8.14600438 23.1105033 8.21166614 23.1798317 8.28316801 23.2402146 8.36366681 23.2855816 8.45316252 23.3188082 8.54849835 23.3397345 8.64983213 23.3397345 8.7631618 23.3247187 8.88233158 23.0079482 10.4563198"></polyline>
                                    <polyline id="Fill-35" fill="#FFFFFE" points="22.892742 11.1389811 22.9192279 11.1211451 23.1008787 10.4594766 23.0476726 10.4534786 22.8662562 11.1151471 22.892742 11.0973111 22.892742 11.1389811 22.9147745 11.13614 22.9192279 11.1211451 22.892742 11.1389811"></polyline>
                                    <polyline id="Fill-36" fill="#FFFFFE" points="22.1087547 11.1280548 22.1271252 11.1592678 22.8843071 11.1592678 22.8843071 11.0973111 22.1271252 11.0973111 22.1450164 11.1280548 22.1087547 11.1280548 22.1058794 11.1592678 22.1271252 11.1592678 22.1087547 11.1280548"></polyline>
                                    <polyline id="Fill-37" fill="#FFFFFE" points="22.1798454 10.784155 22.1399595 10.7604789 22.1221282 10.8081468 22.1176704 10.8884878 22.1176704 10.9958195 22.1087547 11.1179883 22.1620141 11.1179883 22.1709297 10.9958195 22.1798454 10.8884878 22.1753875 10.8081468 22.1753875 10.784155 22.1357363 10.7604789 22.1798454 10.784155"></polyline>
                                    <polyline id="Fill-38" fill="#FFFFFE" points="20.9835248 11.165814 20.9835248 11.165814 21.0680289 11.1776521 21.1494978 11.186649 21.2340019 11.18365 21.3215411 11.1776521 21.4089205 11.165814 21.4934246 11.1508192 21.5779286 11.1269852 21.662273 11.1033091 21.7378314 11.0733193 21.8161055 11.0376473 21.8886288 11.0018175 21.9520468 10.9601475 22.0153051 10.9184775 22.0696177 10.8766497 22.1178601 10.828824 22.1571569 10.784155 22.1271252 10.7604789 22.0878284 10.8051479 22.0454965 10.8469757 21.9911839 10.8884878 21.9339959 10.9303156 21.8705779 10.9661454 21.7980545 11.0018175 21.7256909 11.0376473 21.6502922 11.0674792 21.5718584 11.091471 21.4873543 11.1151471 21.4028503 11.130142 21.3215411 11.1419801 21.2340019 11.147978 21.1494978 11.1508192 21.0680289 11.1419801 20.9895951 11.130142 20.9835248 11.165814"></polyline>
                                    <polyline id="Fill-39" fill="#FFFFFE" points="20.2534992 10.2626491 20.2534992 10.2626491 20.2565343 10.3281531 20.2626045 10.3938148 20.2715501 10.4653167 20.2836906 10.5338196 20.2987065 10.5993235 20.3228277 10.6679842 20.3501437 10.7364871 20.3892808 10.7991499 20.4314529 10.8616549 20.4796953 10.9184775 20.5400782 10.9749845 20.6095664 11.0228103 20.6880002 11.0704782 20.7753797 11.1091492 20.8750593 11.1389811 20.9835248 11.165814 20.9895951 11.130142 20.8809698 11.1033091 20.7875201 11.0733193 20.7060512 11.0346483 20.6276174 10.9929784 20.5640396 10.9453105 20.5098867 10.8944857 20.4616444 10.8378209 20.4193124 10.7813139 20.3862456 10.7186511 20.3590893 10.6561462 20.3349681 10.5934834 20.3197925 10.5278216 20.3078118 10.4594766 20.2987065 10.3938148 20.2926362 10.3281531 20.2956713 10.2626491 20.2534992 10.2626491"></polyline>
                                    <polyline id="Fill-40" fill="#FFFFFE" points="21.3365569 9.11798785 21.3365569 9.11798785 21.2309668 9.13582386 21.1284118 9.16265679 21.0288918 9.19532983 20.9322473 9.2369998 20.8386379 9.28482555 20.7482233 9.34433152 20.6667544 9.40715215 20.5883206 9.47865402 20.515957 9.55299702 20.452539 9.63665263 20.3921561 9.72599051 20.3469489 9.82432531 20.3078118 9.92581692 20.2806555 10.0329908 20.2626045 10.1463205 20.2534992 10.2626491 20.2956713 10.2626491 20.2987065 10.1463205 20.3169172 10.0389888 20.3439137 9.93765498 20.3832105 9.83632121 20.4284178 9.74382651 20.4827304 9.66048659 20.5459887 9.57698882 20.6124418 9.50248797 20.6908756 9.43682621 20.7723445 9.37432127 20.8568486 9.32065541 20.9502983 9.27282965 21.0408726 9.23115969 21.1403925 9.19832881 21.2368773 9.17149588 21.3365569 9.15365987 21.3365569 9.11798785"></polyline>
                                    <polyline id="Fill-41" fill="#FFFFFE" points="21.9581171 9.05532507 21.9248905 9.05532507 21.8825586 9.06400839 21.8403864 9.06870207 21.792144 9.07292639 21.7408665 9.08160971 21.6894293 9.0863034 21.6352764 9.0952214 21.5838391 9.10390472 21.5355967 9.11282272 21.4903895 9.12174073 21.4482173 9.12619973 21.4089205 9.13511773 21.3787291 9.13934205 21.3546079 9.14380105 21.3424674 9.14849474 21.3365569 9.14849474 21.3365569 9.20153339 21.3424674 9.20153339 21.3606781 9.19707439 21.3787291 9.19261539 21.4089205 9.18815638 21.4482173 9.17923838 21.4903895 9.17501406 21.5355967 9.16609606 21.5838391 9.15717806 21.6352764 9.14849474 21.6894293 9.13934205 21.7408665 9.13511773 21.792144 9.12619973 21.8403864 9.12174073 21.8825586 9.11728172 21.9581171 9.11728172 21.9581171 9.05532507"></polyline>
                                    <polyline id="Fill-42" fill="#FFFFFE" points="22.365302 9.10390472 22.3835127 9.08160971 22.3713723 9.08160971 22.344216 9.07738539 22.2959736 9.07292639 22.2386258 9.06400839 22.1028442 9.06400839 22.0304806 9.05532507 21.9581171 9.05532507 21.9581171 9.11728172 22.1028442 9.11728172 22.1721727 9.12619973 22.2959736 9.12619973 22.344216 9.13042405 22.3713723 9.13511773 22.3835127 9.13511773 22.401404 9.11282272 22.3835127 9.13511773 22.3985286 9.13934205 22.401404 9.11282272 22.365302 9.10390472"></polyline>
                                    <polyline id="Fill-43" fill="#FFFFFE" points="22.4096457 8.89732646 22.4051879 8.89732646 22.40073 8.96494416 22.3875912 9.03595218 22.3742177 9.09999123 22.365302 9.12485345 22.4183267 9.13201076 22.4272424 9.10696019 22.4406159 9.04310948 22.4539894 8.96494416 22.4671282 8.89732646 22.4096457 8.89732646"></polyline>
                                    <polyline id="Fill-44" fill="#FFFFFE" points="22.0363911 8.60216421 22.0363911 8.60516319 22.1058794 8.60816216 22.1691376 8.62599817 22.2295205 8.6528311 22.280798 8.68866096 22.3229701 8.73033092 22.3593915 8.78099781 22.3835127 8.83466367 22.3954935 8.89732646 22.4317551 8.89732646 22.4196147 8.82882356 22.3954935 8.7631618 22.3533213 8.70649696 22.3050789 8.65882905 22.2475714 8.61715909 22.1812781 8.59016831 22.1119496 8.57233231 22.0363911 8.56333538 22.0363911 8.60216421"></polyline>
                                    <polyline id="Fill-45" fill="#FFFFFE" points="20.7423129 8.77182706 20.7723445 8.79217958 20.802536 8.77506906 20.8418328 8.75129444 20.8931103 8.73094193 20.9594036 8.71058941 21.0317672 8.69347889 21.1102011 8.67654848 21.1977402 8.65943796 21.2852794 8.64592965 21.3787291 8.63224123 21.4753736 8.62215503 21.5718584 8.61188872 21.6713783 8.60504451 21.9520468 8.60504451 22.0363911 8.60846662 22.0363911 8.56758148 21.9520468 8.56415937 21.8614725 8.55749527 21.7680228 8.55749527 21.6713783 8.56415937 21.5718584 8.57100358 21.4753736 8.58126989 21.3787291 8.59153621 21.2852794 8.60504451 21.19167 8.61873293 21.1041308 8.63566334 21.0258567 8.65277386 20.9533334 8.66970427 20.88704 8.69005679 20.8296923 8.71058941 20.7843253 8.73436403 20.7482233 8.75813865 20.7784148 8.77849116 20.7423129 8.77182706"></polyline>
                                    <polyline id="Fill-46" fill="#FFFFFE" points="20.9654739 8.01199757 20.9533334 8.0268346 20.7423129 8.74532579 20.7784148 8.7511659 20.9895951 8.03283255 20.9774546 8.04766958 20.9654739 8.01199757 20.9563685 8.0148387 20.9533334 8.0268346 20.9654739 8.01199757"></polyline>
                                    <polyline id="Fill-47" fill="#FFFFFE" points="22.3079543 7.877449 22.3079543 7.877449 22.2053993 7.86970767 22.1028442 7.86583701 21.8193004 7.86583701 21.7317612 7.87357834 21.644222 7.877449 21.5598777 7.88519032 21.478249 7.89272792 21.39678 7.90821057 21.3215411 7.92348949 21.2459826 7.9428428 21.173619 7.96219611 21.1012554 7.9888833 21.0317672 8.01964487 20.9654739 8.05448082 20.9774546 8.10052132 21.0439077 8.06588909 21.1132362 8.03512751 21.1796893 8.0082366 21.2520529 7.9888833 21.3276113 7.96973371 21.4028503 7.95445478 21.478249 7.93897214 21.5598777 7.93123082 21.644222 7.92348949 21.7317612 7.91982255 22.1028442 7.91982255 22.2053993 7.92348949 22.3079543 7.92348949 22.3079543 7.877449"></polyline>
                                    <polyline id="Fill-48" fill="#FFFFFE" points="23.3427696 8.88533056 23.3427696 8.88533056 23.3579452 8.7631618 23.3579452 8.64983213 23.3368591 8.54549938 23.3036326 8.44716457 23.2553902 8.35482772 23.1948476 8.27132996 23.122484 8.19682911 23.0470853 8.13116735 22.9597058 8.07450251 22.8691315 8.02083665 22.7726468 7.97916669 22.6790373 7.94333683 22.5795174 7.9165039 22.4860678 7.89566892 22.3924583 7.88083189 22.3079543 7.87483394 22.3079543 7.91050595 22.3924583 7.9165039 22.4799975 7.93134093 22.5736069 7.95233376 22.6668969 7.97916669 22.7605063 8.0148387 22.8510806 8.05666651 22.9414951 8.10433442 23.0229641 8.16099926 23.0985225 8.22666102 23.1648159 8.29516391 23.2251988 8.37250589 23.2673709 8.45916047 23.3004377 8.55149733 23.3216835 8.64983213 23.3216835 8.7631618 23.306508 8.87949045 23.3427696 8.88533056"></polyline>
                                    <polyline id="Fill-49" fill="#FFFFFE" points="23.0261589 10.4594766 23.0261589 10.4594766 23.3427696 8.88533056 23.306508 8.87949045 22.9898973 10.4534786 23.0261589 10.4594766"></polyline>
                                    <polyline id="Fill-50" fill="#F1AD3D" points="22.2777629 9.67832259 22.2718524 9.66048659 22.2598716 9.64549171 22.2386258 9.63665263 22.2084344 9.62765571 22.1752078 9.62465673 22.1360708 9.62165776 22.0907038 9.62165776 22.0454965 9.62465673 21.9972541 9.63065468 21.948852 9.63665263 21.9007693 9.64249274 21.8554023 9.64849069 21.810195 9.65748761 21.7708982 9.66348556 21.7317612 9.67232464 21.7015697 9.67832259 21.6804837 9.68132157 21.6563625 9.69031849 21.626171 9.69915758 21.5929445 9.71099563 21.5538074 9.72898948 21.5175458 9.74682549 21.4753736 9.76781831 21.39678 9.82148417 21.357643 9.85431505 21.3244165 9.88698809 21.2911899 9.92581692 21.2641933 9.96732905 21.2429475 10.0123137 21.2248965 10.0598237 21.2159509 10.1106485 21.2129158 10.2118244 21.2279317 10.292481 21.2520529 10.351987 21.2883145 10.3966559 21.3335218 10.4266457 21.3847993 10.4444817 21.4360768 10.4534786 21.4873543 10.4563198 21.5779286 10.4534786 21.662273 10.4444817 21.7408665 10.4294868 21.810195 10.4086518 21.8766481 10.3848179 21.9339959 10.357985 21.9881487 10.3281531 22.0363911 10.292481 22.078723 10.2594923 22.114825 10.2208213 22.1480515 10.1849915 22.1752078 10.1463205 22.1962939 10.1106485 22.2114695 10.0748186 22.2234502 10.0389888 22.2325556 10.0063157 22.244696 9.92266011 22.2598716 9.83632121 22.2718524 9.75282344 22.2777629 9.67832259"></polyline>
                                    <polyline id="Fill-51" fill="#FFFFFE" points="28.4927251 10.709812 28.4987954 10.6411513 28.5229166 10.5606525 28.5650887 10.4891506 28.616526 10.4266457 28.6797842 10.375821 28.7521478 10.3401489 28.8305817 10.3161572 28.9150857 10.3073181 28.9995898 10.3161572 29.0780236 10.3401489 29.1503872 10.375821 29.2138052 10.4266457 29.2650827 10.4891506 29.3074146 10.5606525 29.331376 10.6411513 29.3374463 10.709812 29.2470317 10.709812 29.2438369 10.6561462 29.2257859 10.5904844 29.1957542 10.5309784 29.1564574 10.4801537 29.108215 10.4384837 29.0507075 10.4086518 28.9844142 10.3878169 28.9150857 10.3816611 28.8457572 10.3878169 28.7793041 10.4086518 28.7221161 10.4384837 28.673714 10.4801537 28.634577 10.5309784 28.6042258 10.5904844 28.5861748 10.6561462 28.5802643 10.709812 28.4927251 10.709812"></polyline>
                                    <polyline id="Fill-52" fill="#FFFFFE" points="28.7641286 10.7656627 28.7641286 10.5309784 28.9301016 10.5309784 28.9663632 10.5347069 28.9995898 10.542578 29.023711 10.5543847 29.0447971 10.5699199 29.0599726 10.5935333 29.0719534 10.6169396 29.0780236 10.6442815 29.0810587 10.6716233 29.0780236 10.7068363 29.0719534 10.7341782 29.0630078 10.7575845 29.0567778 10.7656627 28.9301016 10.7656627 28.942242 10.7617272 28.9634879 10.7575845 28.9815388 10.7499205 28.9965547 10.7420493 29.0086951 10.7304497 29.0147654 10.718643 29.0206759 10.6989652 29.0206759 10.6716233 29.0176407 10.6521526 29.0115705 10.6366174 29.0026249 10.6285392 28.9935195 10.620668 28.978344 10.6169396 28.9634879 10.613004 28.839687 10.613004 28.839687 10.7656627 28.7641286 10.7656627"></polyline>
                                    <polyline id="Fill-53" fill="#FFFFFE" points="28.4927251 10.709812 28.48969 10.727648 28.4987954 10.8141448 28.5229166 10.8944857 28.5650887 10.9661454 28.616526 11.0258093 28.6797842 11.0764761 28.7521478 11.1151471 28.8305817 11.1389811 28.9150857 11.147978 28.9995898 11.1389811 29.0780236 11.1151471 29.1503872 11.0764761 29.2138052 11.0258093 29.2650827 10.9661454 29.3074146 10.8944857 29.331376 10.8141448 29.3404814 10.727648 29.3374463 10.709812 29.2470317 10.709812 29.2499071 10.727648 29.2438369 10.7991499 29.2257859 10.8648117 29.1957542 10.9213187 29.1564574 10.9719856 29.108215 11.0138134 29.0507075 11.0464864 28.9844142 11.0674792 28.9150857 11.0733193 28.8457572 11.0674792 28.7793041 11.0464864 28.7221161 11.0138134 28.673714 10.9719856 28.634577 10.9213187 28.6042258 10.8648117 28.5861748 10.7991499 28.5802643 10.727648 28.5802643 10.709812 28.4927251 10.709812"></polyline>
                                    <polyline id="Fill-54" fill="#FFFFFE" points="28.7641286 10.709812 28.7641286 10.9444963 28.839687 10.9444963 28.839687 10.7521856 28.9150857 10.7521856 29.00566 10.9444963 29.0658831 10.9444963 28.9754686 10.7521856 28.9965547 10.7521856 29.0176407 10.7442405 29.0358514 10.7364992 29.0507075 10.7212203 29.0567778 10.709812 28.9301016 10.709812 28.9150857 10.713479 28.839687 10.713479 28.839687 10.709812 28.7641286 10.709812"></polyline>
                                    <path d="M28.9150857,11.0733193 L28.9150857,11.0733193 L28.9844142,11.0674792 L29.0507075,11.0464864 L29.108215,11.0138134 L29.1564574,10.9719856 L29.1957542,10.9213187 L29.2257859,10.8648117 L29.2438369,10.7991499 L29.2499071,10.727648 L29.2438369,10.6561462 L29.2257859,10.5904844 L29.1957542,10.5309784 L29.1564574,10.4801537 L29.108215,10.4384837 L29.0507075,10.4086518 L28.9844142,10.3878169 L28.9150857,10.3816611 L28.8457572,10.3878169 L28.7793041,10.4086518 L28.7221161,10.4384837 L28.673714,10.4801537 L28.634577,10.5309784 L28.6042258,10.5904844 L28.5861748,10.6561462 L28.5802643,10.727648 L28.5861748,10.7991499 L28.6042258,10.8648117 L28.634577,10.9213187 L28.673714,10.9719856 L28.7221161,11.0138134 L28.7793041,11.0464864 L28.8457572,11.0674792 L28.9150857,11.0733193 M28.9150857,10.7126532 L28.9150857,10.7126532 L28.942242,10.7068131 L28.9634879,10.7036562 L28.9815388,10.6978161 L28.9965547,10.6918182 L29.0086951,10.6829791 L29.0147654,10.6739822 L29.0206759,10.6589873 L29.0206759,10.6381523 L29.0176407,10.6233153 L29.0115705,10.6114772 L29.0026249,10.6053214 L28.9935195,10.5993235 L28.978344,10.5964824 L28.9634879,10.5934834 L28.839687,10.5934834 L28.839687,10.7126532 L28.9150857,10.7126532 M28.839687,10.8916446 L28.7641286,10.8916446 L28.7641286,10.5309784 L28.9301016,10.5309784 L28.9663632,10.5338196 L28.9995898,10.5398175 L29.023711,10.5488144 L29.0447971,10.5606525 L29.0599726,10.5786464 L29.0719534,10.5964824 L29.0780236,10.6173173 L29.0810587,10.6381523 L29.0780236,10.6649853 L29.0719534,10.6858202 L29.0630078,10.7036562 L29.0507075,10.7186511 L29.0358514,10.7304892 L29.0176407,10.7364871 L28.9965547,10.7426429 L28.9754686,10.7426429 L29.0658831,10.8916446 L29.00566,10.8916446 L28.9150857,10.7426429 L28.839687,10.7426429 L28.839687,10.8916446 M28.48969,10.727648 L28.48969,10.727648 L28.4987954,10.6411513 L28.5229166,10.5606525 L28.5650887,10.4891506 L28.616526,10.4266457 L28.6797842,10.375821 L28.7521478,10.3401489 L28.8305817,10.3161572 L28.9150857,10.3073181 L28.9995898,10.3161572 L29.0780236,10.3401489 L29.1503872,10.375821 L29.2138052,10.4266457 L29.2650827,10.4891506 L29.3074146,10.5606525 L29.331376,10.6411513 L29.3404814,10.727648 L29.331376,10.8141448 L29.3074146,10.8944857 L29.2650827,10.9661454 L29.2138052,11.0258093 L29.1503872,11.0764761 L29.0780236,11.1151471 L28.9995898,11.1389811 L28.9150857,11.147978 L28.8305817,11.1389811 L28.7521478,11.1151471 L28.6797842,11.0764761 L28.616526,11.0258093 L28.5650887,10.9661454 L28.5229166,10.8944857 L28.4987954,10.8141448 L28.48969,10.727648" id="Stroke-55" stroke="#FFFFFE" stroke-width="0.5"></path>
                                    <polyline id="Fill-56" fill="#FFFFFE" points="23.2341444 11.1179883 24.0849357 11.1179883 24.3898852 9.42183134 24.4017062 9.35632742 24.4199169 9.29066566 24.4379678 9.22516174 24.462089 9.15965782 24.4922805 9.09399606 24.5285421 9.03149111 24.5676792 8.9718273 24.6160813 8.91516246 24.6703939 8.86449558 24.7304573 8.81682766 24.7999455 8.77200088 24.8783794 8.73632887 24.9659185 8.70649696 25.0625631 8.68266301 25.1681532 8.66466916 25.2857241 8.65882905 25.3611228 8.65882905 25.4969044 7.89266994 25.4124003 7.89866789 25.3309314 7.90766482 25.2555327 7.92250185 25.1830093 7.94333683 25.116716 7.96717079 25.0534577 7.99700269 24.9930749 8.02983357 24.9358869 8.06566343 24.8815742 8.10733339 24.830137 8.14900336 24.7336522 8.24449702 24.6884449 8.29516391 24.6432376 8.35182875 24.5978706 8.40533677 24.5556984 8.46500058 24.646113 7.92550082 23.7983567 7.92550082 23.2341444 11.1179883"></polyline>
                                    <polyline id="Stroke-57" stroke="#FFFFFE" stroke-width="0.5" points="23.2341444 11.1179883 24.0849357 11.1179883 24.3898852 9.42183134 24.4017062 9.35632742 24.4199169 9.29066566 24.4379678 9.22516174 24.462089 9.15965782 24.4922805 9.09399606 24.5285421 9.03149111 24.5676792 8.9718273 24.6160813 8.91516246 24.6703939 8.86449558 24.7304573 8.81682766 24.7999455 8.77200088 24.8783794 8.73632887 24.9659185 8.70649696 25.0625631 8.68266301 25.1681532 8.66466916 25.2857241 8.65882905 25.3611228 8.65882905 25.4969044 7.89266994 25.4124003 7.89866789 25.3309314 7.90766482 25.2555327 7.92250185 25.1830093 7.94333683 25.116716 7.96717079 25.0534577 7.99700269 24.9930749 8.02983357 24.9358869 8.06566343 24.8815742 8.10733339 24.830137 8.14900336 24.7336522 8.24449702 24.6884449 8.29516391 24.6432376 8.35182875 24.5978706 8.40533677 24.5556984 8.46500058 24.646113 7.92550082 23.7983567 7.92550082 23.2341444 11.1179883"></polyline>
                                    <polyline id="Fill-58" fill="#FFFFFE" points="15.2453955 11.1179883 16.1112027 11.1179883 16.4008168 9.42183134 16.4127975 9.35632742 16.4431487 9.23115969 16.464075 9.17149588 16.488356 9.11183206 16.5183877 9.05532507 16.5546493 9.00150136 16.5968215 8.95099232 16.6452236 8.90616554 16.6995363 8.86165444 16.7658296 8.82566675 16.8381932 8.79299371 16.922857 8.76616077 17.016147 8.74232682 17.1188617 8.72733194 17.2364326 8.71833502 17.2455379 8.71833502 17.2576784 8.721334 17.2726943 8.72433297 17.2878698 8.72433297 17.3028857 8.72733194 17.3150262 8.73033092 17.3239718 8.73332989 17.3270069 8.73332989 17.3391474 8.68566198 17.3511281 8.63199612 17.3663037 8.56633436 17.3873898 8.48883454 17.4084758 8.40533677 17.4627885 8.23849907 17.4869097 8.18183424 17.5171011 8.1251694 17.5472925 8.0686624 17.5773242 8.01783768 17.6046403 7.97316874 17.6257264 7.93749672 17.6409019 7.9165039 17.6468124 7.90766482 17.6437773 7.90766482 17.6316368 7.90466584 17.616621 7.90166687 17.5955349 7.89866789 17.5744488 7.89866789 17.5501679 7.89566892 17.5290818 7.89266994 17.5081555 7.89266994 17.4145461 7.89866789 17.330042 7.90766482 17.2516082 7.92250185 17.1792446 7.9404957 17.1097564 7.96417181 17.0464981 7.99400372 16.9891504 8.02383563 16.9348378 8.05966548 16.8834005 8.09833647 16.8353178 8.14300541 16.7899508 8.18783219 16.7447435 8.23849907 16.6995363 8.28916596 16.6572044 8.3458308 16.6119971 8.40533677 16.5667898 8.46500058 16.6754151 7.92550082 15.8096079 7.92550082 15.2453955 11.1179883"></polyline>
                                    <polyline id="Stroke-59" stroke="#FFFFFE" stroke-width="0.5" points="15.2453955 11.1179883 16.1112027 11.1179883 16.4008168 9.42183134 16.4127975 9.35632742 16.4431487 9.23115969 16.464075 9.17149588 16.488356 9.11183206 16.5183877 9.05532507 16.5546493 9.00150136 16.5968215 8.95099232 16.6452236 8.90616554 16.6995363 8.86165444 16.7658296 8.82566675 16.8381932 8.79299371 16.922857 8.76616077 17.016147 8.74232682 17.1188617 8.72733194 17.2364326 8.71833502 17.2455379 8.71833502 17.2576784 8.721334 17.2726943 8.72433297 17.2878698 8.72433297 17.3028857 8.72733194 17.3150262 8.73033092 17.3239718 8.73332989 17.3270069 8.73332989 17.3391474 8.68566198 17.3511281 8.63199612 17.3663037 8.56633436 17.3873898 8.48883454 17.4084758 8.40533677 17.4627885 8.23849907 17.4869097 8.18183424 17.5171011 8.1251694 17.5472925 8.0686624 17.5773242 8.01783768 17.6046403 7.97316874 17.6257264 7.93749672 17.6409019 7.9165039 17.6468124 7.90766482 17.6437773 7.90766482 17.6316368 7.90466584 17.616621 7.90166687 17.5955349 7.89866789 17.5744488 7.89866789 17.5501679 7.89566892 17.5290818 7.89266994 17.5081555 7.89266994 17.4145461 7.89866789 17.330042 7.90766482 17.2516082 7.92250185 17.1792446 7.9404957 17.1097564 7.96417181 17.0464981 7.99400372 16.9891504 8.02383563 16.9348378 8.05966548 16.8834005 8.09833647 16.8353178 8.14300541 16.7899508 8.18783219 16.7447435 8.23849907 16.6995363 8.28916596 16.6572044 8.3458308 16.6119971 8.40533677 16.5667898 8.46500058 16.6754151 7.92550082 15.8096079 7.92550082 15.2453955 11.1179883"></polyline>
                                    <polyline id="Fill-60" fill="#F1AD3D" points="28.4987954 14.2542844 28.4987954 14.2421307 28.5229166 14.1646308 28.5650887 14.0962858 28.616526 14.036622 28.6797842 13.9887962 28.7521478 13.9529664 28.8305817 13.9322892 28.9150857 13.9232923 28.9995898 13.9322892 29.0780236 13.9529664 29.1503872 13.9887962 29.2138052 14.036622 29.2650827 14.0962858 29.3074146 14.1646308 29.331376 14.2421307 29.331376 14.2542844 29.2438369 14.2542844 29.2257859 14.1916216 29.1957542 14.1349568 29.1564574 14.0841321 29.108215 14.0426199 29.0507075 14.009789 28.9844142 13.9887962 28.9150857 13.9829561 28.8457572 13.9887962 28.7793041 14.009789 28.7221161 14.0426199 28.673714 14.0841321 28.634577 14.1349568 28.6042258 14.1916216 28.5861748 14.2542844 28.4987954 14.2542844"></polyline>
                                    <polyline id="Fill-61" fill="#F1AD3D" points="28.7641286 14.3051548 28.7641286 14.1497938 28.9663632 14.1497938 28.9995898 14.1587118 29.023711 14.1676298 29.0447971 14.1852311 29.0599726 14.2075262 29.0719534 14.2340455 29.0780236 14.2652585 29.0810587 14.3051548 29.0206759 14.3051548 29.0206759 14.2828598 29.0176407 14.2605648 29.0115705 14.2429635 29.0026249 14.2340455 28.9935195 14.2253622 28.978344 14.2206685 28.9634879 14.2164442 28.839687 14.2164442 28.839687 14.3051548 28.7641286 14.3051548"></polyline>
                                    <polyline id="Fill-62" fill="#F1AD3D" points="28.48969 14.3516784 28.5030635 14.2542844 28.6314021 14.2542844 28.6314021 14.2585087 28.622721 14.3516784 28.48969 14.3516784"></polyline>
                                    <polyline id="Fill-63" fill="#F1AD3D" points="28.7641286 14.3516784 28.7641286 14.2542844 28.839687 14.2542844 28.839687 14.3427604 28.9150857 14.3427604 28.942242 14.3338424 28.9634879 14.3293834 28.9815388 14.3207001 28.9965547 14.3117821 29.0086951 14.2984051 29.0147654 14.285028 29.0206759 14.2629677 29.0206759 14.2542844 29.0810587 14.2542844 29.0780236 14.285028 29.0719534 14.3117821 29.0630078 14.3338424 29.0507075 14.3516784 28.7641286 14.3516784"></polyline>
                                    <polyline id="Fill-64" fill="#F1AD3D" points="29.2527525 14.3516784 29.2438369 14.2585087 29.2438369 14.2542844 29.37241 14.2542844 29.3857835 14.3516784 29.2527525 14.3516784"></polyline>
                                    <polyline id="Fill-65" fill="#F1AD3D" points="28.48969 14.3197883 28.48969 14.3286274 28.4987954 14.4151242 28.5229166 14.4956229 28.5650887 14.5671248 28.616526 14.6297876 28.6797842 14.6804545 28.7521478 14.7161265 28.8305817 14.7401183 28.9150857 14.7489574 28.9995898 14.7401183 29.0780236 14.7161265 29.1503872 14.6804545 29.2138052 14.6297876 29.2650827 14.5671248 29.3074146 14.4956229 29.331376 14.4151242 29.3404814 14.3286274 29.3404814 14.3197883 29.2499071 14.3197883 29.2499071 14.3286274 29.2438369 14.4001293 29.2257859 14.465791 29.1957542 14.5224559 29.1564574 14.5731228 29.108215 14.6149506 29.0507075 14.6476236 28.9844142 14.6684586 28.9150857 14.6744565 28.8457572 14.6684586 28.7793041 14.6476236 28.7221161 14.6149506 28.673714 14.5731228 28.634577 14.5224559 28.6042258 14.465791 28.5861748 14.4001293 28.5802643 14.3286274 28.5802643 14.3197883 28.48969 14.3197883"></polyline>
                                    <polyline id="Fill-66" fill="#F1AD3D" points="28.7641286 14.3197883 28.7641286 14.5544726 28.839687 14.5544726 28.839687 14.3521512 28.9150857 14.3521512 29.00566 14.5544726 29.0658831 14.5544726 28.9754686 14.3521512 28.9965547 14.3521512 29.0176407 14.3440069 29.0358514 14.3358626 29.0507075 14.3197883 28.7641286 14.3197883"></polyline>
                                </g>
                            </g>
                        </g>
                    </g>
                </g>
            </g>
        </g>
    </g>
</svg>