<?xml version="1.0" encoding="UTF-8"?>
<svg width="98px" height="24px" viewBox="0 0 98 24" version="1.1" xmlns="http://www.w3.org/2000/svg" xmlns:xlink="http://www.w3.org/1999/xlink">
    <!-- Generator: sketchtool 60 (101010) - https://sketch.com -->
    <title>586CB458-1BAE-4918-8270-7B34CD173F40@3.00x</title>
    <desc>Created with sketchtool.</desc>
    <g id="Desktop-View" stroke="none" stroke-width="1" fill="none" fill-rule="evenodd">
        <g id="ðŸMerchant-Checkout" transform="translate(-1036.000000, -373.000000)">
            <g id="Shopping-Cart" transform="translate(150.000000, 64.000000)">
                <g id="Payment" transform="translate(790.000000, 0.000000)">
                    <g id="Content" transform="translate(24.000000, 144.000000)">
                        <g id="Payment-Paypal" transform="translate(15.160000, 165.000000)">
                            <g id="Paypal" transform="translate(57.608000, 0.000000)">
                                <g transform="translate(0.000000, 0.399981)">
                                    <path d="M36.2931853,5.26089182 L30.9219575,5.26089182 C30.5543575,5.26089182 30.2417545,5.52392558 30.1843376,5.88142616 L28.0119558,19.4465147 C27.9688382,19.7143152 28.1793667,19.9554655 28.4550117,19.9554655 L31.0191922,19.9554655 C31.3867922,19.9554655 31.6993952,19.6926484 31.7568121,19.3344979 L32.3426402,15.675642 C32.3991771,15.3174914 32.7124401,15.0544576 33.0793801,15.0544576 L34.7796676,15.0544576 C38.3177351,15.0544576 40.359664,13.3681382 40.893135,10.0266995 C41.1333619,8.56463049 40.9032544,7.41607864 40.2080922,6.611594 C39.4447338,5.72824258 38.0907075,5.26089182 36.2931853,5.26089182 Z M36.9126716,10.2154165 C36.6189875,12.1136362 35.1463877,12.1136362 33.7226251,12.1136362 L32.9119692,12.1136362 L33.4806383,8.5685305 C33.5145165,8.35424682 33.7028262,8.19651323 33.9228142,8.19651323 L34.294374,8.19651323 C35.2643012,8.19651323 36.1792315,8.19651323 36.6519857,8.74099744 C36.9340104,9.0657813 37.0202457,9.54851541 36.9126716,10.2154165 L36.9126716,10.2154165 Z" id="Fill-1" fill="#28356A"></path>
                                    <path d="M52.3485717,10.1543164 L49.7764716,10.1543164 C49.5573635,10.1543164 49.3679539,10.31205 49.3342957,10.5263337 L49.2203419,11.2348348 L49.0406117,10.9780844 C48.483822,10.1820498 47.2419895,9.91598267 46.002797,9.91598267 C43.1603316,9.91598267 40.7327637,12.0362861 40.2600094,15.0104742 C40.0142828,16.4939933 40.3636238,17.9127289 41.2182773,18.9020305 C42.0020946,19.8115986 43.1235936,20.1907659 44.457821,20.1907659 C46.7481164,20.1907659 48.0178873,18.7403969 48.0178873,18.7403969 L47.9032735,19.444348 C47.8601559,19.7134485 48.0706844,19.9548155 48.3447895,19.9548155 L50.6614835,19.9548155 C51.0299634,19.9548155 51.3410265,19.6917818 51.3991033,19.3336312 L52.7892077,10.6632672 C52.8332053,10.3963334 52.6233367,10.1543164 52.3485717,10.1543164 Z M48.7632068,15.084791 C48.5150603,16.53191 47.3489037,17.5034449 45.8613447,17.5034449 C45.1144853,17.5034449 44.5176578,17.2674945 44.1342186,16.8205105 C43.7540793,16.3765598 43.6097672,15.7445421 43.7305406,15.0405909 C43.962408,13.605822 45.1481435,12.602437 46.6130438,12.602437 C47.343404,12.602437 47.9371517,12.8416374 48.3282904,13.2923048 C48.7200891,13.7479555 48.8756206,14.3838732 48.7632068,15.084791 L48.7632068,15.084791 Z" id="Fill-2" fill="#28356A"></path>
                                    <path d="M66.0472263,10.1543164 L63.462367,10.1543164 C63.2157604,10.1543164 62.984113,10.2749999 62.8444206,10.4769336 L59.2795146,15.6485586 L57.7684168,10.6786506 C57.673382,10.3677334 57.3821178,10.1543164 57.0521358,10.1543164 L54.5123739,10.1543164 C54.2035107,10.1543164 53.9892424,10.4513669 54.0873571,10.737584 L56.9344422,18.9661639 L54.2578478,22.6876366 C54.0473192,22.9807871 54.2593877,23.3837877 54.6230279,23.3837877 L57.2045875,23.3837877 C57.4496541,23.3837877 57.6788817,23.2661375 57.8179141,23.0683206 L66.4146063,10.8465675 C66.6205151,10.5542837 66.4091066,10.1543164 66.0472263,10.1543164" id="Fill-3" fill="#28356A"></path>
                                    <path d="M74.6045407,5.26089182 L69.232653,5.26089182 C68.865933,5.26089182 68.55333,5.52392558 68.4959131,5.88142616 L66.3235313,19.4465147 C66.2804136,19.7143152 66.4909422,19.9554655 66.7650473,19.9554655 L69.5217173,19.9554655 C69.7775634,19.9554655 69.9966714,19.7715152 70.0367093,19.5208315 L70.6533357,15.675642 C70.7098726,15.3174914 71.0233556,15.0544576 71.3900756,15.0544576 L73.0897031,15.0544576 C76.6284306,15.0544576 78.6696995,13.3681382 79.2038305,10.0266995 C79.4449373,8.56463049 79.2132899,7.41607864 78.5181278,6.611594 C77.7554293,5.72824258 76.4022829,5.26089182 74.6045407,5.26089182 Z M75.224247,10.2154165 C74.9312229,12.1136362 73.4586231,12.1136362 72.0339806,12.1136362 L71.2244246,12.1136362 L71.7937537,8.5685305 C71.8274118,8.35424682 72.0144016,8.19651323 72.2350496,8.19651323 L72.6066094,8.19651323 C73.5756567,8.19651323 74.4914669,8.19651323 74.9642211,8.74099744 C75.2462458,9.0657813 75.3318211,9.54851541 75.224247,10.2154165 L75.224247,10.2154165 Z" id="Fill-4" fill="#298FC2"></path>
                                    <path d="M90.6592672,10.1543164 L88.088707,10.1543164 C87.868059,10.1543164 87.6804092,10.31205 87.647411,10.5263337 L87.5334572,11.2348348 L87.3528471,10.9780844 C86.7960574,10.1820498 85.5551049,9.91598267 84.3156923,9.91598267 C81.473447,9.91598267 79.046759,12.0362861 78.5740047,15.0104742 C78.3289381,16.4939933 78.6767391,17.9127289 79.5311727,18.9020305 C80.3167499,19.8115986 81.436489,20.1907659 82.7709364,20.1907659 C85.0610118,20.1907659 86.3310027,18.7403969 86.3310027,18.7403969 L86.2163889,19.444348 C86.1732713,19.7134485 86.3835798,19.9548155 86.6594448,19.9548155 L88.9754788,19.9548155 C89.3421988,19.9548155 89.6548018,19.6917818 89.7122187,19.3336312 L91.102983,10.6632672 C91.1454407,10.3963334 90.9349122,10.1543164 90.6592672,10.1543164 Z M87.0741222,15.084791 C86.8275157,16.53191 85.6595992,17.5034449 84.1720401,17.5034449 C83.4267207,17.5034449 82.8283533,17.2674945 82.4449141,16.8205105 C82.0649948,16.3765598 81.9220026,15.7445421 82.0412361,15.0405909 C82.2746434,13.605822 83.4588389,12.602437 84.9237392,12.602437 C85.6540995,12.602437 86.2478472,12.8416374 86.6389859,13.2923048 C87.0323245,13.7479555 87.187856,14.3838732 87.0741222,15.084791 L87.0741222,15.084791 Z" id="Fill-5" fill="#298FC2"></path>
                                    <path d="M93.6915822,5.63312576 L91.4870821,19.4465147 C91.4439645,19.7143152 91.654273,19.9554655 91.9283781,19.9554655 L94.1447575,19.9554655 C94.5132375,19.9554655 94.8256205,19.6926484 94.8821574,19.3344979 L97.0560791,5.77005931 C97.0994168,5.50225888 96.8888882,5.26024182 96.6147831,5.26024182 L94.1330982,5.26024182 C93.9139901,5.26089182 93.7254603,5.41884208 93.6915822,5.63312576" id="Fill-6" fill="#298FC2"></path>
                                    <path d="M5.70648951,22.5916531 L6.11720716,20.022199 L5.20227694,20.0011823 L0.833314659,20.0011823 L3.86958945,1.04000168 C3.87904894,0.982584919 3.90962727,0.929284833 3.95428484,0.891368105 C3.9991624,0.853451377 4.05635929,0.832651344 4.11619603,0.832651344 L11.4829352,0.832651344 C13.9287621,0.832651344 15.6165103,1.33380215 16.4975624,2.32310375 C16.9106999,2.7872045 17.1738056,3.27232195 17.3011786,3.80597281 C17.4347114,4.36605705 17.4369112,5.03512479 17.3066783,5.85130944 L17.2972188,5.91067621 L17.2972188,6.43371038 L17.7103564,6.66424409 C18.0581574,6.84602772 18.3346824,7.05402805 18.5467509,7.2921451 C18.9000516,7.68907908 19.1286192,8.19347989 19.2251939,8.79126419 C19.3250685,9.40616518 19.2920703,10.1380664 19.1286192,10.966601 C18.9400895,11.9195026 18.635406,12.7495539 18.2238084,13.4285883 C17.845429,14.0543227 17.3632153,14.5734569 16.7905864,14.9755908 C16.2439162,15.3577915 15.5945115,15.6479086 14.8601914,15.8335922 C14.1485302,16.0160258 13.3372143,16.1081093 12.4473627,16.1081093 L11.8740739,16.1081093 C11.4642362,16.1081093 11.0660579,16.2534929 10.7534549,16.5141433 C10.439972,16.7802104 10.2327432,17.1437777 10.1691667,17.5413616 L10.125829,17.772762 L9.40008853,22.3017527 L9.36731032,22.4679363 C9.3585108,22.5205863 9.34355161,22.5468031 9.32155281,22.5645698 C9.30197387,22.5808198 9.27381541,22.5916531 9.2463169,22.5916531 L5.70648951,22.5916531" id="Fill-7" fill="#28356A"></path>
                                    <path d="M18.1012751,5.9711263 C18.0794963,6.10957653 18.0541977,6.25106009 18.0260392,6.39644366 C17.054572,11.3091516 13.7307729,13.0063043 9.48588387,13.0063043 L7.32450147,13.0063043 C6.80532972,13.0063043 6.36777352,13.3774549 6.28703792,13.8818557 L4.86701518,22.7532867 C4.81443804,23.0845706 5.07358394,23.3829211 5.41280549,23.3829211 L9.2463169,23.3829211 C9.70015221,23.3829211 10.0857912,23.0581372 10.1572873,22.6172198 L10.1949053,22.4254695 L10.916686,17.9142456 L10.9631035,17.6668118 C11.0337196,17.2243778 11.4202386,16.8993773 11.8740739,16.8993773 L12.4473627,16.8993773 C16.1614206,16.8993773 19.0690024,15.4143415 19.9188162,11.1165346 C20.2736569,9.32123171 20.0899669,7.82211262 19.150618,6.76781092 C18.8663935,6.44996041 18.5137527,6.18605998 18.1012751,5.9711263" id="Fill-8" fill="#298FC2"></path>
                                    <path d="M17.0851504,5.57202566 C16.9366585,5.52934226 16.7835468,5.49077553 16.6264753,5.45589214 C16.4685239,5.42187542 16.3068327,5.3917587 16.1403018,5.36532533 C15.5575535,5.27259184 14.9189283,5.22860844 14.2349855,5.22860844 L8.46095963,5.22860844 C8.31862738,5.22860844 8.18355473,5.26024182 8.0627813,5.31744192 C7.79637579,5.44354212 7.59860655,5.69184252 7.55064916,5.99582634 L6.322236,13.658472 L6.28703792,13.8818557 C6.36777352,13.3774549 6.80532972,13.0063043 7.32450147,13.0063043 L9.48588387,13.0063043 C13.7307729,13.0063043 17.054572,11.3082849 18.0260392,6.39644366 C18.0550776,6.25106009 18.0794963,6.10957653 18.1012751,5.9711263 C17.8555485,5.84264276 17.589363,5.73279259 17.3027185,5.63919243 C17.2318824,5.61600906 17.1588464,5.59369236 17.0851504,5.57202566" id="Fill-9" fill="#22284F"></path>
                                    <path d="M7.55064916,5.99582634 C7.59860655,5.69184252 7.79637579,5.44354212 8.0627813,5.31830858 C8.18443468,5.26089182 8.31862738,5.22925844 8.46095963,5.22925844 L14.2349855,5.22925844 C14.9189283,5.22925844 15.5575535,5.27345851 16.1403018,5.36619199 C16.3068327,5.3924087 16.4685239,5.42274209 16.6264753,5.45675881 C16.7835468,5.49142553 16.9366585,5.53020893 17.0851504,5.57267566 C17.1588464,5.59434236 17.2318824,5.61687573 17.3033785,5.63919243 C17.5900229,5.73279259 17.8564284,5.84350943 18.102155,5.9711263 C18.3912193,4.15567337 18.0997352,2.91958805 17.1031894,1.80028624 C16.0043492,0.56788425 14.0213771,0.0405167321 11.4838152,0.0405167321 L4.116856,0.0405167321 C3.5985642,0.0405167321 3.15638826,0.411667331 3.07631262,0.916934813 L0.00791956909,20.0731157 C-0.0525771392,20.4520663 0.244186714,20.7939669 0.632245599,20.7939669 L5.18027814,20.7939669 L7.55064916,5.99582634" id="Fill-11" fill="#28356A"></path>
                                </g>
                            </g>
                        </g>
                    </g>
                </g>
            </g>
        </g>
    </g>
</svg>