<?xml version="1.0" encoding="UTF-8"?>
<svg width="44px" height="13px" viewBox="0 0 44 13" version="1.1" xmlns="http://www.w3.org/2000/svg" xmlns:xlink="http://www.w3.org/1999/xlink">
    <!-- Generator: sketchtool 60 (101010) - https://sketch.com -->
    <title>34A37CF6-01AA-434D-B20C-457F6D195B09@3.00x</title>
    <desc>Created with sketchtool.</desc>
    <g id="Desktop-View" stroke="none" stroke-width="1" fill="none" fill-rule="evenodd">
        <g id="ðŸMerchant-Checkout" transform="translate(-1083.000000, -317.000000)">
            <g id="Shopping-Cart" transform="translate(150.000000, 64.000000)">
                <g id="Payment" transform="translate(790.000000, 0.000000)">
                    <g id="Content" transform="translate(24.000000, 144.000000)">
                        <g id="Payment-CreditCard" transform="translate(15.160000, 96.000000)">
                            <g id="Visa" transform="translate(104.098667, 13.000000)">
                                <g transform="translate(0.196011, 0.247160)">
                                    <polyline id="Fill-2" fill="#004F8B" points="15.214983 12.4519749 17.3969254 0.226003532 20.8865126 0.226003532 18.7030988 12.4519749 15.214983 12.4519749"></polyline>
                                    <path d="M31.3594436,0.52695124 C30.6680987,0.279167057 29.5848527,0.013583632 28.2318375,0.013583632 C24.7839419,0.013583632 22.3547928,1.67172353 22.3341923,4.04815653 C22.3148179,5.80489486 24.0683178,6.78502417 25.3919036,7.36982294 C26.7500689,7.96890795 27.2069598,8.35112325 27.2003382,8.88627151 C27.1917546,9.70573924 26.1156208,10.0802259 25.1125698,10.0802259 C23.7159011,10.0802259 22.9740358,9.89497328 21.8280071,9.43851641 L21.3782283,9.24412995 L20.8884746,11.9809976 C21.7036681,12.3222278 23.2109422,12.6180231 24.7756036,12.6332461 C28.4439742,12.6332461 30.8250553,10.9940765 30.8522775,8.4562793 C30.8655207,7.06559643 29.9355527,6.00700994 27.9225839,5.13461288 C26.7027366,4.56901855 25.9557212,4.19148726 25.963569,3.61886692 C25.963569,3.11065172 26.5958099,2.56730644 27.9620683,2.56730644 C29.1031921,2.550444 29.9296668,2.78792336 30.5736794,3.03570754 L30.8863665,3.17669628 L31.3594436,0.52695124" id="Fill-3" fill="#004F8B"></path>
                                    <path d="M40.307688,0.237713559 L37.6112222,0.237713559 C36.7759187,0.237713559 36.1507898,0.455285871 35.7839037,1.25156775 L30.6013921,12.4559563 L34.2658389,12.4559563 C34.2658389,12.4559563 34.8649717,10.9493442 35.0005921,10.618653 C35.4010767,10.618653 38.9605587,10.6238054 39.4694415,10.6238054 C39.5739158,11.0516898 39.8942054,12.4559563 39.8942054,12.4559563 L43.1321716,12.4559563 L40.307688,0.237713559 M36.0048692,8.1178595 C36.293277,7.41338424 37.3951616,4.70017086 37.3951616,4.70017086 C37.3743158,4.73272474 37.6816074,3.99241679 37.8576932,3.53338371 L38.0936186,4.5875204 C38.0936186,4.5875204 38.7619105,7.50589346 38.9014547,8.1178595 L36.0048692,8.1178595" id="Fill-4" fill="#004F8B"></path>
                                    <path d="M12.2882324,0.234903153 L8.87172809,8.57220857 L8.50778491,6.87776758 C7.87186533,4.92453499 5.89028791,2.80853301 3.67474703,1.74924392 L6.79867439,12.4414359 L10.4908338,12.4374545 L15.984561,0.234903153 L12.2882324,0.234903153" id="Fill-5" fill="#004F8B"></path>
                                    <path d="M5.70243045,0.227408735 L0.0755353767,0.227408735 L0.0309008359,0.481750534 C4.4087645,1.49373111 7.30535,3.93925327 8.50778491,6.87776758 L7.28425896,1.25953056 C7.072858,0.485263542 6.46023666,0.254341799 5.70243045,0.227408735" id="Fill-6" fill="#ED9F2D"></path>
                                </g>
                            </g>
                        </g>
                    </g>
                </g>
            </g>
        </g>
    </g>
</svg>